<mxfile host="app.diagrams.net" modified="2024-04-11T07:34:17.360Z" agent="Mozilla/5.0 (Windows NT 10.0; Win64; x64) AppleWebKit/537.36 (KHTML, like Gecko) Chrome/123.0.0.0 Safari/537.36" etag="yiXPfY37puT9fATnTaGq" version="24.2.2" type="github">
  <diagram name="Page-1" id="pecLkVwlzULoLIY2V-5H">
    <mxGraphModel dx="2634" dy="1222" grid="1" gridSize="10" guides="1" tooltips="1" connect="1" arrows="1" fold="1" page="0" pageScale="1" pageWidth="1169" pageHeight="827" math="0" shadow="0">
      <root>
        <mxCell id="0" />
        <mxCell id="1" parent="0" />
        <mxCell id="MwgWpZunRzbry4b15rF9-16" style="edgeStyle=none;curved=1;rounded=0;orthogonalLoop=1;jettySize=auto;html=1;exitX=1;exitY=0.5;exitDx=0;exitDy=0;entryX=0;entryY=0.5;entryDx=0;entryDy=0;fontSize=12;startSize=8;endSize=8;" parent="1" source="MwgWpZunRzbry4b15rF9-1" target="MwgWpZunRzbry4b15rF9-13" edge="1">
          <mxGeometry relative="1" as="geometry" />
        </mxCell>
        <mxCell id="MwgWpZunRzbry4b15rF9-1" value="" style="rounded=0;whiteSpace=wrap;html=1;fontSize=16;fillColor=none;strokeColor=default;" parent="1" vertex="1">
          <mxGeometry x="-440" y="-80" width="200" height="480" as="geometry" />
        </mxCell>
        <mxCell id="MwgWpZunRzbry4b15rF9-2" value="" style="rounded=0;whiteSpace=wrap;html=1;fontSize=16;fillColor=none;dashed=1;" parent="1" vertex="1">
          <mxGeometry x="-398.75" y="160" width="120" height="200" as="geometry" />
        </mxCell>
        <mxCell id="MwgWpZunRzbry4b15rF9-3" value="" style="rounded=0;whiteSpace=wrap;html=1;fontSize=16;fillColor=none;dashed=1;" parent="1" vertex="1">
          <mxGeometry x="-398.75" y="-40" width="120" height="200" as="geometry" />
        </mxCell>
        <mxCell id="MwgWpZunRzbry4b15rF9-4" value="" style="sketch=0;pointerEvents=1;shadow=0;dashed=0;html=1;strokeColor=none;fillColor=#505050;labelPosition=center;verticalLabelPosition=bottom;verticalAlign=top;outlineConnect=0;align=center;shape=mxgraph.office.concepts.web_page;fontSize=16;" parent="1" vertex="1">
          <mxGeometry x="-360" y="70" width="50" height="54" as="geometry" />
        </mxCell>
        <mxCell id="MwgWpZunRzbry4b15rF9-5" value="" style="html=1;verticalLabelPosition=bottom;align=center;labelBackgroundColor=#ffffff;verticalAlign=top;strokeWidth=2;strokeColor=#0080F0;shadow=0;dashed=0;shape=mxgraph.ios7.icons.documents;fontSize=16;" parent="1" vertex="1">
          <mxGeometry x="-360" width="40" height="40" as="geometry" />
        </mxCell>
        <mxCell id="MwgWpZunRzbry4b15rF9-6" value="" style="html=1;verticalLabelPosition=bottom;align=center;labelBackgroundColor=#ffffff;verticalAlign=top;strokeWidth=2;strokeColor=#0080F0;shadow=0;dashed=0;shape=mxgraph.ios7.icons.video_conversation;fontSize=16;" parent="1" vertex="1">
          <mxGeometry x="-363.75" y="280" width="57.5" height="40" as="geometry" />
        </mxCell>
        <mxCell id="MwgWpZunRzbry4b15rF9-7" value="" style="sketch=0;outlineConnect=0;fontColor=#232F3E;gradientColor=none;fillColor=#ED7100;strokeColor=none;dashed=0;verticalLabelPosition=bottom;verticalAlign=top;align=center;html=1;fontSize=12;fontStyle=1;aspect=fixed;pointerEvents=1;shape=mxgraph.aws4.container_registry_image;" parent="1" vertex="1">
          <mxGeometry x="-360" y="200" width="40" height="40" as="geometry" />
        </mxCell>
        <mxCell id="MwgWpZunRzbry4b15rF9-9" value="Embedding &lt;br&gt;API/Model" style="sketch=0;outlineConnect=0;fontColor=#232F3E;gradientColor=none;fillColor=#01A88D;strokeColor=none;dashed=0;verticalLabelPosition=bottom;verticalAlign=top;align=center;html=1;fontSize=12;fontStyle=0;aspect=fixed;pointerEvents=1;shape=mxgraph.aws4.sagemaker_model;" parent="1" vertex="1">
          <mxGeometry x="-36" y="-50" width="78" height="78" as="geometry" />
        </mxCell>
        <mxCell id="MwgWpZunRzbry4b15rF9-22" style="edgeStyle=none;curved=1;rounded=0;orthogonalLoop=1;jettySize=auto;html=1;exitX=0.5;exitY=1;exitDx=0;exitDy=0;entryX=0.5;entryY=0;entryDx=0;entryDy=0;fontSize=12;startSize=8;endSize=8;" parent="1" source="MwgWpZunRzbry4b15rF9-11" target="MwgWpZunRzbry4b15rF9-21" edge="1">
          <mxGeometry relative="1" as="geometry" />
        </mxCell>
        <mxCell id="MwgWpZunRzbry4b15rF9-11" value="Vector Store" style="shape=datastore;whiteSpace=wrap;html=1;fontSize=12;" parent="1" vertex="1">
          <mxGeometry x="120" y="98" width="80" height="72" as="geometry" />
        </mxCell>
        <mxCell id="MwgWpZunRzbry4b15rF9-14" style="edgeStyle=orthogonalEdgeStyle;rounded=0;orthogonalLoop=1;jettySize=auto;html=1;exitX=1;exitY=0.5;exitDx=0;exitDy=0;fontSize=12;startSize=8;endSize=8;" parent="1" source="MwgWpZunRzbry4b15rF9-12" target="MwgWpZunRzbry4b15rF9-9" edge="1">
          <mxGeometry relative="1" as="geometry" />
        </mxCell>
        <mxCell id="MwgWpZunRzbry4b15rF9-12" value="Query" style="rounded=1;whiteSpace=wrap;html=1;fontSize=16;" parent="1" vertex="1">
          <mxGeometry x="-170" y="-180" width="80" height="40" as="geometry" />
        </mxCell>
        <mxCell id="MwgWpZunRzbry4b15rF9-19" style="edgeStyle=orthogonalEdgeStyle;rounded=0;orthogonalLoop=1;jettySize=auto;html=1;exitX=1;exitY=0.5;exitDx=0;exitDy=0;fontSize=12;startSize=8;endSize=8;elbow=vertical;targetPerimeterSpacing=35;" parent="1" source="MwgWpZunRzbry4b15rF9-13" target="MwgWpZunRzbry4b15rF9-9" edge="1">
          <mxGeometry relative="1" as="geometry" />
        </mxCell>
        <mxCell id="MwgWpZunRzbry4b15rF9-13" value="Text Extraction&lt;br style=&quot;font-size: 14px;&quot;&gt;(summarization, transcription)" style="rounded=1;whiteSpace=wrap;html=1;fontSize=14;" parent="1" vertex="1">
          <mxGeometry x="-180" y="123" width="120" height="75" as="geometry" />
        </mxCell>
        <mxCell id="MwgWpZunRzbry4b15rF9-20" style="edgeStyle=none;curved=1;rounded=0;orthogonalLoop=1;jettySize=auto;html=1;exitX=0.5;exitY=1;exitDx=0;exitDy=0;fontSize=12;startSize=8;endSize=8;" parent="1" source="MwgWpZunRzbry4b15rF9-17" target="MwgWpZunRzbry4b15rF9-11" edge="1">
          <mxGeometry relative="1" as="geometry" />
        </mxCell>
        <mxCell id="MwgWpZunRzbry4b15rF9-17" value="&lt;b&gt;&lt;font style=&quot;font-size: 11px;&quot;&gt;Embeddings&lt;/font&gt;&lt;/b&gt;&lt;br&gt;[0.045, 0.089, 0.875, ....]" style="text;html=1;strokeColor=none;fillColor=none;align=center;verticalAlign=middle;whiteSpace=wrap;rounded=0;fontSize=16;perimeterSpacing=3;" parent="1" vertex="1">
          <mxGeometry x="115" y="-51" width="90" height="80" as="geometry" />
        </mxCell>
        <mxCell id="MwgWpZunRzbry4b15rF9-18" style="edgeStyle=none;curved=1;rounded=0;orthogonalLoop=1;jettySize=auto;html=1;entryX=0.083;entryY=0.5;entryDx=0;entryDy=0;entryPerimeter=0;fontSize=12;startSize=8;endSize=8;" parent="1" source="MwgWpZunRzbry4b15rF9-9" target="MwgWpZunRzbry4b15rF9-17" edge="1">
          <mxGeometry relative="1" as="geometry" />
        </mxCell>
        <mxCell id="MwgWpZunRzbry4b15rF9-21" value="Similar Texts and Embeddings" style="rounded=1;whiteSpace=wrap;html=1;fontSize=14;" parent="1" vertex="1">
          <mxGeometry x="100" y="240" width="120" height="75" as="geometry" />
        </mxCell>
        <mxCell id="MwgWpZunRzbry4b15rF9-29" value="" style="edgeStyle=none;curved=1;rounded=0;orthogonalLoop=1;jettySize=auto;html=1;fontSize=12;startSize=8;endSize=8;" parent="1" source="MwgWpZunRzbry4b15rF9-24" target="MwgWpZunRzbry4b15rF9-28" edge="1">
          <mxGeometry relative="1" as="geometry" />
        </mxCell>
        <mxCell id="MwgWpZunRzbry4b15rF9-24" value="Chat Model" style="sketch=0;outlineConnect=0;fontColor=#232F3E;gradientColor=none;fillColor=#01A88D;strokeColor=none;dashed=0;verticalLabelPosition=bottom;verticalAlign=top;align=center;html=1;fontSize=12;fontStyle=0;aspect=fixed;pointerEvents=1;shape=mxgraph.aws4.sagemaker_model;" parent="1" vertex="1">
          <mxGeometry x="472" y="93" width="78" height="78" as="geometry" />
        </mxCell>
        <mxCell id="MwgWpZunRzbry4b15rF9-27" style="edgeStyle=none;curved=1;rounded=0;orthogonalLoop=1;jettySize=auto;html=1;exitX=1;exitY=0.5;exitDx=0;exitDy=0;fontSize=12;startSize=8;endSize=8;" parent="1" source="MwgWpZunRzbry4b15rF9-25" target="MwgWpZunRzbry4b15rF9-24" edge="1">
          <mxGeometry relative="1" as="geometry" />
        </mxCell>
        <mxCell id="MwgWpZunRzbry4b15rF9-25" value="Conversation Chain" style="rounded=1;whiteSpace=wrap;html=1;fontSize=16;" parent="1" vertex="1">
          <mxGeometry x="280" y="94" width="120" height="76" as="geometry" />
        </mxCell>
        <mxCell id="MwgWpZunRzbry4b15rF9-26" style="edgeStyle=orthogonalEdgeStyle;rounded=0;orthogonalLoop=1;jettySize=auto;html=1;exitX=1;exitY=0.5;exitDx=0;exitDy=0;entryX=0.5;entryY=1;entryDx=0;entryDy=0;fontSize=12;startSize=8;endSize=8;" parent="1" source="MwgWpZunRzbry4b15rF9-21" target="MwgWpZunRzbry4b15rF9-25" edge="1">
          <mxGeometry relative="1" as="geometry" />
        </mxCell>
        <mxCell id="MwgWpZunRzbry4b15rF9-30" style="edgeStyle=orthogonalEdgeStyle;rounded=0;orthogonalLoop=1;jettySize=auto;html=1;exitX=0.5;exitY=0;exitDx=0;exitDy=0;entryX=0.5;entryY=0;entryDx=0;entryDy=0;fontSize=12;startSize=8;endSize=8;" parent="1" source="MwgWpZunRzbry4b15rF9-28" target="MwgWpZunRzbry4b15rF9-25" edge="1">
          <mxGeometry relative="1" as="geometry">
            <Array as="points">
              <mxPoint x="709" y="10" />
              <mxPoint x="340" y="10" />
            </Array>
          </mxGeometry>
        </mxCell>
        <mxCell id="MwgWpZunRzbry4b15rF9-28" value="Generated Answer" style="whiteSpace=wrap;html=1;verticalAlign=top;fillColor=#01A88D;strokeColor=none;fontColor=default;sketch=0;gradientColor=none;dashed=0;fontStyle=1;fontSize=18;labelBackgroundColor=none;labelBorderColor=none;" parent="1" vertex="1">
          <mxGeometry x="649" y="102" width="120" height="60" as="geometry" />
        </mxCell>
        <mxCell id="s-O5aCYOvA6fl5G4NqDx-3" value="Bot" style="verticalLabelPosition=bottom;aspect=fixed;html=1;shape=mxgraph.salesforce.bots;" vertex="1" parent="1">
          <mxGeometry x="-6" y="570" width="60" height="57" as="geometry" />
        </mxCell>
        <mxCell id="s-O5aCYOvA6fl5G4NqDx-4" value="Chat Model&amp;nbsp;&lt;div&gt;(LLM)&lt;/div&gt;" style="editableCssRules=.*;html=1;shape=image;verticalLabelPosition=bottom;labelBackgroundColor=#ffffff;verticalAlign=top;aspect=fixed;imageAspect=0;image=data:image/svg+xml,PHN2ZyB4bWxucz0iaHR0cDovL3d3dy53My5vcmcvMjAwMC9zdmciIHhtbG5zOnY9Imh0dHBzOi8vdmVjdGEuaW8vbmFubyIgd2lkdGg9IjIwIiBoZWlnaHQ9IjE3LjUiIGZpbGwtcnVsZT0iZXZlbm9kZCIgdmlld0JveD0iMCAwIDIwIDE3LjUiPiYjeGE7CTxzdHlsZSB0eXBlPSJ0ZXh0L2NzcyI+JiN4YTsJLnN0MHtmaWxsOiM0Mjg1ZjQ7fSYjeGE7CS5zdDF7ZmlsbDojNjY5ZGY2O30mI3hhOwk8L3N0eWxlPiYjeGE7CTxwYXRoIGNsYXNzPSJzdDAiIGQ9Ik0xOC45MSAxMC42M0wyMCA4Ljc1IDE3LjgyIDVoLTMuMDdsLTEuMDYtMS44NkgxMi41VjEuODhoMS45NGwxLjA2IDEuODdoMS41OUwxNC45IDBoLTQuMjd2NWgxLjczbC43MyAxLjI1aC0yLjQ2djIuNWgyLjI2bDEuMDUtMS44N2gyLjgxbC43MiAxLjI1aC0yLjhMMTMuNjIgMTBoLTIuOTl2NC4zOGgzLjRsLS43MiAxLjI1aC0yLjY4djEuODdoNC4yN2wzLjI4LTUuNjJoLTIuMDlsLS43MyAxLjI1SDEyLjV2LTEuMjVoMi4xNGwuNzQtMS4yNXoiLz4mI3hhOwk8cGF0aCBjbGFzcz0ic3QxIiBkPSJNMS4wOSAxMC42M0wwIDguNzUgMi4xOCA1aDMuMDdsMS4wNi0xLjg2SDcuNVYxLjg4SDUuNTZMNC41IDMuNzVIMi45MUw1LjEgMGg0LjI4djVINy42NGwtLjczIDEuMjVoMi40N3YyLjVINy4xMUw2LjA2IDYuODhIMy4yNWwtLjcyIDEuMjVoMi44TDYuMzggMTBoM3Y0LjM4SDUuOTdsLjcyIDEuMjVoMi42OXYxLjg3SDUuMWwtMy4yOC01LjYyaDIuMDlsLjczIDEuMjVINy41di0xLjI1SDUuMzZsLS43NC0xLjI1eiIvPiYjeGE7PC9zdmc+;whiteSpace=wrap;" vertex="1" parent="1">
          <mxGeometry x="-14.889999999999986" y="922.51" width="77.78" height="70" as="geometry" />
        </mxCell>
        <mxCell id="s-O5aCYOvA6fl5G4NqDx-37" value="" style="edgeStyle=none;curved=1;rounded=0;orthogonalLoop=1;jettySize=auto;html=1;fontSize=12;startSize=8;endSize=8;" edge="1" parent="1" source="s-O5aCYOvA6fl5G4NqDx-5" target="s-O5aCYOvA6fl5G4NqDx-16">
          <mxGeometry relative="1" as="geometry" />
        </mxCell>
        <mxCell id="s-O5aCYOvA6fl5G4NqDx-5" value="Embedding &lt;br&gt;API/Model" style="sketch=0;outlineConnect=0;fontColor=#232F3E;gradientColor=none;fillColor=#01A88D;strokeColor=none;dashed=0;verticalLabelPosition=bottom;verticalAlign=top;align=center;html=1;fontSize=12;fontStyle=0;aspect=fixed;pointerEvents=1;shape=mxgraph.aws4.sagemaker_model;whiteSpace=wrap;" vertex="1" parent="1">
          <mxGeometry x="-640" y="747" width="78" height="78" as="geometry" />
        </mxCell>
        <mxCell id="s-O5aCYOvA6fl5G4NqDx-40" value="Context Documents" style="rounded=0;orthogonalLoop=1;jettySize=auto;html=1;exitX=1;exitY=0.5;exitDx=0;exitDy=0;entryX=0;entryY=0.5;entryDx=0;entryDy=0;fontSize=12;startSize=8;endSize=8;elbow=vertical;" edge="1" parent="1" source="s-O5aCYOvA6fl5G4NqDx-6" target="s-O5aCYOvA6fl5G4NqDx-17">
          <mxGeometry x="0.0079" y="-18" relative="1" as="geometry">
            <mxPoint as="offset" />
          </mxGeometry>
        </mxCell>
        <mxCell id="s-O5aCYOvA6fl5G4NqDx-6" value="Atlas Vector Search" style="shape=image;html=1;verticalAlign=top;verticalLabelPosition=bottom;labelBackgroundColor=#ffffff;imageAspect=0;aspect=fixed;image=https://cdn2.iconfinder.com/data/icons/whcompare-isometric-web-hosting-servers/50/database-128.png;whiteSpace=wrap;" vertex="1" parent="1">
          <mxGeometry x="-820" y="906" width="103.01" height="103.01" as="geometry" />
        </mxCell>
        <mxCell id="s-O5aCYOvA6fl5G4NqDx-36" style="edgeStyle=none;curved=1;rounded=0;orthogonalLoop=1;jettySize=auto;html=1;exitX=0;exitY=0.5;exitDx=0;exitDy=0;fontSize=12;startSize=8;endSize=8;" edge="1" parent="1" source="s-O5aCYOvA6fl5G4NqDx-10" target="s-O5aCYOvA6fl5G4NqDx-5">
          <mxGeometry relative="1" as="geometry" />
        </mxCell>
        <mxCell id="s-O5aCYOvA6fl5G4NqDx-10" value="Format conversation threads" style="shape=image;verticalLabelPosition=bottom;labelBackgroundColor=default;verticalAlign=top;aspect=fixed;imageAspect=0;image=data:image/png,iVBORw0KGgoAAAANSUhEUgAAAO4AAADoCAYAAADot9g/AAAAAXNSR0IArs4c6QAAAARnQU1BAACxjwv8YQUAAAAJcEhZcwAADsMAAA7DAcdvqGQAAEsbSURBVHhe7Z33m5zVledv5yiphbIIkhCgBIgcRRQyGIQwwR4PhpmdZ2d2ZvaX3f1n5nlmZz1jsGHw2MaIZDBRgEEiSyBAEhJCrYSy1Dnv+Zxbp/rtVr3V3dX1dldV32/r6A31xnvO955z41s2IHABAQFFhfLUMiAgoIgQiBsQUIQIxA0IKEIE4gYEFCEKu3Iq1ycrSy0DRo+Q1kWF0vS4oZ58bBhPeoW0nhSEUDkgoAgRiBswvnA3hMqTgkDcgIAiRGkSN3iBgBJHyXZ5DHUmo0fI54oPIVQOCJlcESJx4vb397uenh5dRsF2X1+fizr8EnX+JYE4/QVMDiYkVOYWZWVlaWVXVFS48nKfZ5hB2HZ3d7ceU1VVld6XCwYk/gvZwOhAqFyWJbHQAz93dnbqsZWVlapDUWoIsycJiROXyyNRokJixABREfZBWMN4HiyQdmzIRsCOzg5XW1M7RGeiVdfb26sJXSVENkSPCUgOiRMXQuJFISQ5tYH9Z86ccXV1da6mpsZ1dXWp0o3g7R0drrqmWtfHCnuhQN7RAaplo1tFRaXoRnQmmW5vT6/qsaa6WtN3YEAyYlmJEjaQN3kkTlwLjyEk64gRmFtT/j169Kjbvn27yokTJ1xtba2rb2hw3T3detxYkSZusJ9RQYmXWs8EiFgtRJ058xy3ZMkSd/HFF7lZs2bLL+J1hcj1kvkaWVkG4iaPRInLpSEt5SGUCUnZxzbrO3fudJs2bXLvv/++lp+ampr0ODx0WbkcTyiWA0L5dmyAZtnKuJr5iqAbIqSFCxe6q666yt10001u7pw5rrJcyrspWMQUyJssEieulWkNrB87dsx9/vnn7k9/+pN6WHJzI3OHhMis14jX7enrzZmAwduODdmIW1EBGct02dvbpzqaMWOGJ+8NN7gVy5brceg2KgHJIflQWS5PJQZloXLJmXuFnO9/8L578cWX3JEjRzQsrpBcur2j3VVVVilhQVtbm6usHqyoGit4qURfrMAwHpqMdG6Z6IeIqLKyIlXMKXOdXZ2uQYozl192uXvk4Yfd7Fmz/MGCCtFzlLiBwvlH4sTtlVAZ4lZWVWrY/O2337rf/va3rrm5WT0rauUROjs73PTp0117e4eEY+Jtu3tSv+cGMoypZDHZPCbI1QNq5CJpqRWMNdWupaVVijQzXLdkwF2yj4x37dq17sf3/FjKurWqy6qqap/0sq7eV/8C8olkQ2WRvv4+19XVrbl1e3u7e+nll91bb77pDxB1knPXifKpWV6y5EI3e85sN1PKuqdPnXa1si9X9E+xUq4niq5mRC7EteJGX1+/a21tcT8cPer27Nmj0VDjtGmuXEJn9Ldo0WL30IMPulUrVmoZF49LhNWv9RuVrlzJG5BPJF7G7ZUyLkpk/bvvvnO/+c1vZLlXwqx6DcGOSri8bPlyt/bOtW7ZsmWuVnLtJik/adlYL6KXGhvkxKlF25GJmxNS6QgZIevefd+7Dz/6SDLet1yFhMz1okPKuxRv7rv3Xveju9a5KineVJQRKcmZweMmhkSJS00kHrdSyq49Pd3uvffec88995wqu6ysXMLoXlXohg0b3J133ukaG6dpe245NcoSKtPMkCumWuVUEsTVy8mFqTSkbEst/4GDB90TT/zK7f1+n5KUDJbjqKR6+KGHtdzLsd7LDhJ2iqkjceTep3AUQHnlQtB+IS/h1unTp3WpnliMoKuzS8Osq6++2jU0Niq5rdxLc1Cudsh53mSmlqh3i5Fcodm6nu/1sWDBAtHZIs1crU2eCsdTolvCZmC3Q8+56jAgOxIlLhqEgJAV8kJW35OqR36kG2SZhsx4WnJ1ai45jtC6vk5CaX+VnOBNZuqIkiSLjAtyek9vj+gPz1uh7biACquu7i6NqvpEt/2iZ3rISXZNNpImcED+kSxxU0aDsmn/88Sly1yFKhjvSo6Ngsm9a2vrdN947UwNRq7BdaaKJAJJR9KS9tvKlK56enq1fEuFI7qiCU9JKuVgdKgyIJmvZij8EpAEEva4ZlhUUvj+ybouSgZs+0EFZdqWa2Sm7ASioR4VJHGCsdgx2utKwnNvOHHiDbK0xKcTaYqQSRLFjCb9YkXSkbREJ7TBy110nWsTFUFkdMyxAILb/QKSRbLETcGHar69Vmkj/+m6EvpsJVM2Hg3MQP31Paj4ok1YzEe2Motenv9KRfS9WPXEsnT1maJzJ0+e1GUu8FdGZao0T9LB5HYD/Skdyj5Iro+TPisgKUwIcZMCnhZDIuc38k6bNk3bhNNeI4OogZXSn7DFPK29I2ljBKZ7YkBpIeEOGAOut4+B8gPaI2rjxufc25s2ae5MWEWHjJtvvtk9+ugvtLcUPW70RwEGSQ5v0Fw9Ah7biBv9jfBQw0QpS8cDY0+tlggYE0sTGqivr9d0gcikBwMDcoGlPnqkJxrFEMq3r7/+unvy10/qCC7APVatXOUef+wxN3/+PNmj2tP/LZlLLLknHUVNXAzTQkMMFbz99ttuy4cfumPHj+l2ZpSeGUHcttZWDY8vueQSt2bNGl2SPmRwLMeKQNzCRdES1yqkeHztRysGSz/op59+2m3dts3NaJpa4WFlhRQXUhEIacLInUcffdTNnDnTnTp1SodMjhWBuIWLoi3jYpwI5MWb0OMK4tKtcu7cOWrA2YTzSkm6aU9NRSBMTPDVV1+5H374QTO4UMYtPSRO3KE5byrflQW5uUlkd3pnalcsIB+AsBgr5ToqqfAKwueziHq2+CaO/Eume+VLMt3PS3V1jW+eEVBBN2/ePB25A5lJk5GQ1kUEpoO4GTIynRMwMUiUuCi8QrwBMySgeHpK0X+Z4Jkmem2mlx/UAFKWocf51RGBx7WyG55l5cqVbt26da5VynoYbDahh1YSkule+RI/WCOzSDJrpRzzeNEt8dprr1UCkz7WLBQHI6CJIrWBPlRS60B1FpXU/oCJQ6JlXLEo384n3qKltcVtfOF599obb+g2XSEp41KJ8gsp4zKWs6ZSyriEv3oyfWMHH41wMAqIao/Ob3gkjHv//v1uj4TLx08c199KCcPTYAgkKWj/xuvOnj3bLV26VJekER43W80yqUhmytVNhrARPcpfZ0+3K5frv/bG6+4JKePWSRmXY3u7e9yloYw7oSha4kZhFVV2TKeEz7nOEFm0kKSyFEKllh5kZsAik0wIxC0+FHXllAEDjW6PFBqWIsi8EGBpwZJIJBtpA4oTRUtcgGGakWKgBvMY/DJVxIhLepi3RSj3GqEDSgdFS1yMEhh5o6K/YbiT8EdnyskQyrZ4Vt7fV2RBZ5+h2XpA6aCoQ2Uj6XASg0w1vhMiAwxrS0bk7WL/vN/1sPQwDN8OKH4UNnFTthhneJDUwkCOwdPoUgjEMpvIf7mJeLfs8BO6A81D9Bzfu6i/n+f1L8U0MOwDHIfYu7Cfo+xYmtAG751ZGDhh5Vm8r74jv8jS1gNKBwVdq4yXiTM8IylCOc4qYOjeR5NQ9kEGIFdjzp5ckAbiMUKJmT/OOWemO++88+UZe2R/r+yvVoLy3LxDS0uL9nTy304irPXjXOfOnetmzZql74Y01Pvuhdkwnjciy+B8kyGviR7lL9QqFw6KmrgAL8OUNxCFsbh8HeGTTz5xbXLtybAWqyDiuZgkb/Hixe7ee+91S5demMps+BpAj/bL3rNnt/b73bVrl7xDl+yrVCLzjZ7Fixe5u+++211wwQVyLWaaGPxgWhxyfd1A3OJD0ZZx8bAQAaJAWpY7duxwr732mtu9Z49OTHfqVJyc0sHlSQiZR0dHp64fO3bUffTRR/ptJPaRYUFaQuCWljNu69at7uOPP9Fnoq8x5CXMPnnyhPvLX953mzdv0UwLD8zk4wEBhqIlLkQlhDTvhtc9cOCAeqyFCxdoW26c4AmTEogH2ZimtK6uXp+L7yNBWKaCwdNWVFboFwEOHTqsBKYrKO8CeRsbG/VbSm1trZIRfSP7+FCan4QtIMBQtMS1ihhIAokxdmYfpJvf999/72thY4U4MHchco8TjuCZuMcZISVlWsJHnhVSQ04mXps5s8ktWnSBO0fKsZSJrXIJz0p/43nz5us0qAx3hLwQPyDAULTEBXgh87ysL1++3N16661uZtNMDaPjxDfd9Ocsma5pUlNNpRTlb/G69fXu0ssuc6tXX+Hq6/1E4ZAaz0t4T/n3wiVLdH91NR670nVrJVWZfoP2hhtuVDJzbGXwuAERJDuQnkuLaOWUhLBUTr2eqpwS63Udkcop/X4QA+k5Xs/OXjmFlzKvC7iXHXf48GHXKqFm3ItxLATMCTxPajUTIN8JKd9SC4y3nDtvnr4bHz/TCEH+mKKWbTIb3oNaZcrGPBezXTIggAni+Qgas1rUyradG4dszzQaaKTgV/1ySOL5gfRdkcqpJ3/9a1fHZ2TkVyqnogPpeU72R593cC0gH0icuCgcglGr/PzznrhsQ7J0rfIvPHGrhbjUXgJVeuTRMpHXwH3sNWzdCD1WcJUBbu038wr/BgyewHP75+S99HMd4oW5qz4/h6WW9t5+5sv4NIj/ZWRkvzLtyH2a2fKFPpavC3H5BhQZDO/BZOirVqWIKxmVPbMROI1MiTqeB5/CSD5UFsVE9aV6kh0sTeyATHodDTCUKLFZNwLnKvJf3oW/KAaf2INf7d6ZltE0Gy7jht7cr0ZhuzP8pBhy78hBeXuugIwo6jJuJhiJMfRcRP5LUFIGLS5d+xjLc7I0zyThjy7Txw3blxT0+iC94pHgLQPGiZIhrhEWGb49JpGytxIqCRFmKBlFSHglb2pb9+lxUm7XZyjXbcq86X3p8/IrCp9sAUWCtN5KAVECUo7OSZQwIon8ybOJG1PCKElTwrPjZc0Tyx9T/lSkn4PzhFm4wCQkC4YcGvMIAROPgiZu2jDGaLMQd1zgIomC5xsuwxG3P1kMT0vFxD9GwAgoWOKq0aRsN21Ao8QQoxsrcj5xNMj2ZIneeFSIPoGtR59Y1wOJCwLJElc8H3UydEiwZiG6BbJtXpFeQbRrllf4vsf24euh9nG2tdBEwTUN/uv3cm5qGzMbXvE0XGjL7e31M0Swzbr8oufKjgTEXzojdH/kRztnghC9k63bsq/XD+iwNGPkFc1CSmIR7aWmaejb3WmbRo8BySFR4nqCoEz/iQzm+S2v4JaeOCj4+PFj7siRI0pNejRp5wQl0CAZIWnvMPFG1Oe6e7rVcAD34pq9GBZ/cuNo2OyfZ/De3IffjbwG38bqDTER4fmHi+6P/Jbt2DwLGSZpFpWeflmmRArirrO7SzNi0unQoUOurb1NdURlHl9R8H2pfUYdkDwSJS6cUeKI0G3vnHPOUQVr1z4hDh+yPnnylPviiy/c4R9+0E4TFXxKQ5SPgdi5mQRvq4PRMTJZmgfGkIaTNRPYD2HN+6vxyjZCLjIg+6aKRNMVIT1M2K6qqNJoiQETm7dsdt/s2OGqRZ/oC8/K94xnz5mjPcVIP6IqScEhmWFAfpFszykRJVevkFQUzSdC/uu/fud2796tv9JbiOFvCxbMdzfccINbvXq173TPEDYMR4wlG8gA+IJBXX2dqyj3PaXw6JVlfgJ2xBB9TdYRG8nDAAU69h8/flw/19FCd8nkkqXgoOQdDtllKUDUQ9fLb/fsdps2bdLMlhFOfRIRVIoOG2vr3SOPPOJuvvFGPV4J3QOB/TxYaWRK0gy3DhgZE0JcRrYQJkOOV155RcfMkhvTH/fkiZPihSt1nW6PdUJEutDxcSklboxiGaDPrBH1DfXuitVXuGuvu9bNkVzfN+UI6eWYOJvAK5hHoQ/1p59+6j7//HMdw4uRlotRDkwlgxJFSVaW2vCIbtXU1rj9Bw7qSCcdcyzpTndHiht1NbVuxcWXuJ8KcRddsEj0mioPi34qRX9DMt9MlhaImxMSJy5EQJnchXB0377v3XPPPSfh8ZdCZj+ShjAaEvJFv3rxngCFU9aKezg8LJ68V3J2vpNz++23u7Vr17ppjdPEoLpdDWUuOVnDvWHQcFjAPSHtq6++6g4ePKjeoa2j3VVI6DeliEtEK97TQJpH3x8dUrRhyGR7R4eGzbUSFp8+ddotnD/fPfLgQ+7qK6/ynUVSoqcPT/9MypxK6ZxHJE5cKo4gCrkzU7Dwec1t27a5l15+2f3AKB4JwQbDqTI3ffo0LUthKBXiieOAJ6+V3J6yLSHuvLlz3f0bNuiwvnopO5eJsUUNZziB29ra3ObNmzUCOHbsmIbLPCfD53oYBDCFDKpc0ilaKEFvRlzWaySdySRPnDyhOpw9e5aGy9NEVxvuW+9uvWmNa2xo0Npn6jAgMBmydi6R9TS42HAE4uaECfC4qbmhJITVddkJmbdv3+42PrdRy7tUbhDcYhyMEGJJ81CZ1kBnBk+NJ7ccHtLxLdi77lrn7r3nx+KJuzVkVogBQVyzEYxqy5Yt7tlnn1XSUk4mdOe5CNHx81OJuGUS1koCpLYG+WXkZRTXtGnTVU8tktEyBJG5sNavX+9uvO56jW7QL0rx6VymM3gwNtnXNqdgF44iEDcnJEpcYBdHP7out+OP3Jnvt34pBN4inu/b3d9q2Ivng7jMv8R63MPRVMLX6Nrb2v34Vcnxjxw94mbPmu3++X/+s1u+fIVOC9M0o0mJSkUUFVedHZ1u67at7uWXXnaHDh/Sa+Hx+2l3lIeknEvoDtlzwUiJmXBy54zhbxt9SvRA+pFOEJaPZl9x5RVaprUx1CB6Dd5TSZxjOgZkR+LEHQ5uZ6JlIVEsOThtgzZnFMShMgtjiQNtv++++66eT6gMcbke3oEpbP7X//nfblbqa3X9Wo6u1WOZAfLpp5+S+/hPcWJttJ9yLzKCDRsekFC7NnWXscO8VCnBN93VaqZ47rkLNTME2saeipLiEIibDCaVuPZRanJ0UzAhrxE626NB9g8++MC98MILSlY/T9M8XXZ0drhly5a7xx5/3C1ZslivQ1l6x86d7rfP/FYyiP1yzxqdmI3yNJ0+CLPvv/9+d8stt6gh5mpuPHGpkZfX4b1Yam81EfSjetKcL15PgbjJYMKJC7il3dZ6MNHmpyGqAE8IoWw7EzAIvDPtijQv4TE5D8/bIedSdr39jjvcY4/9QjKHSrfr213umf/8T9fc3OyahKT09oHMYNq0Rvfggw+5m2++SY2RUTm5on+EYLkYDblXijVUKpI26I2eZbwGma6VbeMQiJsMJp24KNaUaz1tMBCQrecN3hpwLM1L77zzjq4zf9O06dP1t24J4y5dtUrLZH/+85/1CwdURHFnwmeuP336DPfAAxvkmKuV9Hjf6sqqnAyO6+q7+c2zIZdUD1VkiFYCer2hM37hPyFx7At7/QbkH8lXTsnlMymP/XhafsPb2j4D60bgTOBcPCzn4jn/8Ic/6OTjlH0Je6tra9zhwz+4uXPnyHH9GlrzGJR1Ozra9Rrz589399233l199VVawYWX17KyeJFczI2nz0LbogVqIe0szenxhrfFC/sD/CLAp5PP0M5GLjYVh0kjLojeOnqMGQhl3zjgLY34GBE9ep5++mltZvId5fu0QgVA7Cq5Vo0InTwgO50J1q27y1133fXa+4ppUZlNESul/TEXz8jb8E7xCUqkkVotIuBxlaipbqW8Ie/pQ2bKuvk0yeJHNtvJV0pNKnEtFLbf447LBMrGAK8MgSEjtcu/+tWv3Ndff601nrQ7MmywstIbHPfDAJuaZro777zT3XTTjVpBxbXIJGg77mV9hMqpuHdiP4lJH15W0h5JoImcbFInBtJN29U1VfzgAZ8GhM+j11kpAjsjBSw6jNoG6sYJ0D+AffyWq1MYjkkp4+YL5nF5BYyJxv69e/e6Z377W7fti21+XuL2dg196UpJ2zC9ftauvUvC46uFtA0aOnO+hoA6RK1isONGDDje7onCeAaeRcuA8jsdTdhHpRjX9cfhmchAija5A1KwIhp2pWOTZZ8f1eYnzEf3g7ZRruumd6IWyDteFC1xeWzIojWbkkDWtMR+ao5/9eQTbv+BA65TyraEyeyfN3eeeNo73DXXXKNttgw/41xCQZ9zpog7QsKiCO5t4L5GXBR54sRJrSSjAwif1uT6gN+RUsNUzIqwAQhMywfDVRng0tTUpM4DWzPiGsmJ6rAtWjPGT9sS8LhGBpqDeBUSEhLy6crfPPUb7Z0FsdjPZyvX3HKLfhrET0AOrNzpk4HcciSPixJQjPUoAmw379+vX+Dbt7/ZHTp4MN3cJFfVZwOlFlryVkVrQDnCPCpmAhGJ5hYsXOhWLF/hli5d6s4//3xXWeWjLQ2MOV68MR66Cscwgn2NBkVNXE0YiCbE1YQUsI73pT2VftBff/2NHNfrLrxwqXbGYLwtOSDgzb1zHSx1UErNlrDchwzDlMeSGmtGGX344Ydu566d+uEuMgv6PdOVkmGNHKcRQeo6pYSpRlxvawMasTEumfHj0GjGjCaxsSXujjvuUALbjC/dXd4eyLQrysQuvNGNC0VLXCMqhDDYOl30ICCJ1SJejy6NhMaebDQzkQtS/tCzhpAWonFeXNJyX0syPC+9tr788kv9oPa+fftcvZSbdfIArRSrTA2g8JkM50WftxRASgyU1iuNCHMU3ptiBzb6rUy8b4NbcuESt/bOO90VV1yp+tbIUAhMqAxx81FYKmrikigIpIiCSiYIyYtpKCubzHllHhpiKmE5nxMEkJakQKhAyGaLFiojdLtkPC8fywaMV+W+DDq3sg2VYr4Tg1w324WLEEbcojSiHEEdCMUxOvGgY/oAEF3heTtTHYPo9PPQgw+6+QsWpLytFOnEWVDCzYcJFHWozKNHw2VA7saYWtpySSKriifxON48piakCMdAWgPbIyWsDvCXaxw9ctT9/ve/1yGC9NZiAD+enGfgmjQ1+cEPFUpczsmP2goHkHYqDYEE6LFabIx+22TY7W1tqne8KmOR0T82t/7++91dd92lxNYaaMnEa4Tgldq6MD4UNXGBPT4JBZQcsq770wY1SBfvWTmeLb8/mgDpUzLAjuMaeNFN72zSEBnlacYgv/VKrrt40WK3cuWKVO319FRmQQZCj6NQq1zswNviYSmCnTx10m3+YLP76OOPtSJ0gXhYHbgi5F2wcIF7/PHH3fJly9WBUAzTyimxg/Gi6Ik7UYiSlnV6aj3/wgvaR1rDZtlL6DRDiPrA+vvdTTfdpB6X3JeogIoKy1wCihtMD+wjPOpM+rTZ8S/vvaeDXeheSwsGFZJEW3xC9vrrr5fjcCi+HTcfVlB62f8EgJyTkUmMQCJ3hZAIJL1i9Wrt3EFlGMqFtNZ1c3hZPKA4YV0/te+ArJ977rkSXV3rzjvvPCUsBMUfUr9yVGyE48ju85lxB+KOEQTX1B6iFOatwttStqHyi44el112uZZp+I1jtHwjBEaRlHECih+Evb5QNaBjv+kmO3Nmk5s1a3Z6qh6iMjJqJtSj37zuyCMCcccIHyj7nNPXFJO9sqtM+zhX1/hJASjz4mkhLO28wAY9BBQ3aJdF6UxWyKT+1CwTHrMks0bn2idZBPKyrnaSRwTijhF4WJSBclRBEirRN5k5tGiGYpQRhIWkhM4cTy5sXjcb7JpxElAY8BnwYGuEVw2ZtW/fjWoqqcrIQNwcgMKUTLKOZyV89rWGlGF9TosCIS7HkROzHDFUxnlnEzkkSH5kvOgV3SJEXXhZMm9sAc+LPaBvap99U+Bgp518IRB3jICUhD4oQrikntT3xIK83iz4zZTI7yiY34dMVRoDlKySUjTrupRtM7og4xODkYmlpXN0PQ7+mNQIISEmw0apsGQ/+hZV++PkOqxTowwgdL4QiDtGaEO7KAtVsE7YTBOAjihSQ/DKMQKiSG3jld+QbCCHxitzTe+9B3tpsU9uECQPwh8ekgzV9ILXtHRmfzZYJmwER8d0bUW9dq5vs/fe1sq3PuvNDwJxCwiQlF5ffH4FD6tfc5BcnW6UGAG1k0HyI5YhsoS4vu11sE6i0BE6YIwSlkiaZ0uSfbNzh3vmmWfcd999pzkuTUIo/Z/+4R/dtVdfnfayluuSS7PNsVFEk59qjdb2dtfcvE/H9BKO0Yh/7NhxnRQAIwsYP/B/jNChDdbmGVu0aJGOq8XjQlz0Fgc0Rp2G1ydjsXt0ZtGnn3ravffeuzohIQMP8LSMFHrggQfSzYL0mspHwByIO0okQdxo0rPeK8aw+cMt2guHj5BZ7t/W1q7lKG9yAeMFqcjMlHRLRB/0cLviiiv0o3HMRWbpHge0FohbJLBEYkmSjZe4luwsbb2ju8s98eQT7rPPPte2XxTPnMY0L+EJoqQPGB/4rm9rS4vOWkGIDLEefvhht2bNGk1nKp7igLYmm7jBEiYZaQLLHzNmnDx12nUKgSnbIkwzi6b1493idYOMX4heyEjJECEZhCLt9fvIkkFmI22hIBB3EjHU6zo1ovkL5qshtXe060R3hGzHT5zQiirGegbJg3R2SdoyFK9MB4vQ75z+xpRz2WeT7Y8G5j3z4UXHghAqjxKWSCxJsnyGyumlXGPnrl1uy5bNbve3u7W/c31Dgxgac0FXpZuIAsYHSEbFFGVc9DJ37lx35ZVXajmXSsCRyriAY6j5R78aKnd0uqeejoTKcm00y3hcvknV0MA8Z2UuPzNOBeKOGpZILEmyfFVORZOfLpMoHA/Ax8v4iS5znIuR0K0yDhjDROf6xQzCYeoRKN9SOTVr1iwthwL0NVK4zDGmX2r7tYwrxH1Xicv0RT2qs3Xr1glx10sG3JgibllewtxA3FFiIojLzBpMPM4x7Pc9bnxPHtaZDicOStqgyVFDM8MU+Vgfrhf2ZcNkEzcf1wjIE2yeZ7rGeaKLcch+wjYb0xsHsZGAMQBvC/kgHmluPaYsky10BOIWEOh2R4cAKqIARPYTaHsiB+QPjPCJhsMQ2EhcDAjELSAwlteP70zNQin/43UJuwjHlMBxf0LsIKMX0pPaYzJK1ovF0xoCcQsMGBHG1NmF5/Uf68YzEC77rxDGC58/CTI6oehB/2QETwtpIS/pzbLQEYhbQOjtsfG7qW8ayTqGxKdBmfqV9SD5ETJHyrl4XbaNrKQ/UugItcqjhCUSS5IsiVplQuLu3l63V665R6SttU17TJ05fUY/nQJ5A/ID6g6YrQT90D+Zzhd86JxtMFJlIDo1/U5GrXIg7igxEcRlPO5bb7/lXnrpJf3aH4qvlVCOtl0+dcJ6HIISRw9KslLS1SXelqIIc2D/5Cc/0ZkaQaG344ZQuYBApwu+Q3To0CGtpJoxfYYax5zZc9w5M2fqF/PjhM4DmfYHiZHaWk2zmZKupPHOnTtVjMiFjkDcAgLlLXJpKqIYi0uvKbo9+u/sUqts3uJsAZKhBxmFAAgKIKmVeSEwntRmsShkBOIWEGY0zXDLly1zc+bM1QopDAqv4A3JT7ieTfQrgUFGFNKKUUIsyRghL5/HvPDCCzX0pT290BHKuKPERJRx6au8/8BB9+mnn7i9e79X78CvfAWO87hGHAZSxwaMDFKRD2+1t7bpgAAGGUDcFStW6GwY6Gs0gwxMv6FyqoBhicSSJEuKuFRQnTnTojXIVEhhSBxC6Bw9djj4Yl78rwFRQNyqMvGsUjSh9piohiWe1/QT1VMmBOIWCSyRWJJk+SAuGJL8YlEQF+EjyJR5mWHBT6otChdiB+QHzETBsD6KI+gEPQHTlW3HYbKJm49rBIwDKNMEcrLEqLQyimlOdD8ZRvb8lTmUyvuDjFb4HCppC/EQSAgZIbGleSEjELfAgAMmLGYYH562qqpSDUvbHcWgYkW8cZDRCzDSkkkiAA9sNc6FjEDcAoNwUMNjK3NhUDRV4HPxCHHCpOwWZgcZWZi/mnSzj3SR3kZkpNARiFtA6O7uEiHnpyycKhOLEVVX+47wWpaOE8rBQUYlZUgqUrGxztY0RL3CkHqHAkWonBolLJFYkmT5qpyKgsoMro/XPXXqtHiGPp0+lPmR2tpaZX/8uTQHBYweA4TDUhxBH5A32vxjpM4GdGr6nYzKqUDcUWIiiMu1mw/sd59++qnbs3u3hnEYFKFya2ubTjgWh9COOzaUQVohEbqh2yOTxV1++eXpdtyRuj0G4hYJJoK4YgruT396xf3ud79zZ86cdjNmNEno1qnhc2Njg5bN4qDPFbzu6CCJ1d3R4Zqmz0iHx9ddd53bsGGDW7p0qeqo0Imbj2sEjBIoOioo32oxkf3N+91HH32kxnDBBReIAZXpdKHTp09zjdOmacf4OKmr853mc5FaOTfTNUtVSKtpkp6kM8KwPgYYbNu2LV1JVegIxJ1kkAsbGHuLQREaHzlyxPH5EQwNgre2tLpeydnjhE9ekPPnIgzgz7S/lAWvC0lJXzwu60zTSiVVMSAQdxJhpNWl/GNu38suu9QtWoS3ZYpW75EJuQjdZBErGXeOSbjG1JH29jZ37Ngx/fQI0c/KlSu1r7JPdw4qbIQy7ihhiaR6lyQbbxk3muy2TseAQ4cP6zX3NTdrX1oIyxQr06ZN18qqgPygXjwtmSL6QTcQ96KLLkrvC5VTJYJ8ExdEk551vgAnBzi+bk+YrJ5Y7tjV1S3GUCfXiVfVYMAdMBJIK8sEmSyOUJnae3TAfkYMjYTJJm4IlScRnpgerFNO5TMjGAUCMAxIC6isihWMIsiohLSibOuLH77XFBkqOmAZzVALFYG4BQRyfeZUxnjop6xeWAlcpiEc9hQvA25APHIu4i8gt5lCQroaSVknfdmGzKwXOgJxJxlRr2vkK5M/ZiGsEiOyDyEjeIo4UXuUg7Q7H2E7e8QT27YJF9Kl/CY3T+3zx9s52h7M7yUsRlifSfrmH/axHdVJNqTyAE1ToOsRsNuuZOu2PV4E4hYAMBQEojION6pkSMnSf4pkcP9wwWwgHpN99/b3uT6+gCDLLil/dVPe0t+d6xXj5Dc9Rvawr7/M/6a/6zndcpx4IRE+sm3XKyWhXApxjcCIYSTiKmFTCW/kHd75xTb1MDnAJF8IxC1yqJdW4xNJrWMfhHzqrdWCBq2K8jBtlWV4FhHMjtCQfZzLsVxHNtIZSvT8UoFmlFI0wcNGQToUQ6gcapVHCUskliRZEl0ex4LhauvF2ISUNCHRPkkTkn8GnnlAOxfMbJrpamtrtBKsWowWgvaJhwa0ZzI9LLBOChgw08R6b1RaZkIE09XJcEmnk83Thk4llenKwudMICVoAfD6TH3Ymlrlp+zD1g26j/T90bp1bv369a4hVatsEdR4EYg7SlgisSTJCoW4tsRIjhw96j755GMdpAARMSAMrKO9wy1deqG7Wp6Lib8hJGcxCV2FGDBzW3HeJ598ovNd8Yxcl+8X+UnYS8/j8u4USwDdSq+66ipNG0hM+kDiOJB2gbhFAkskliTZZBLXVMbS1pl2dPOWLe7FF19w+/cfkPvKM4lRERoTEtOt8ZprrnZ/8zd/o/2Tq6qq1aty/hdfbHMbNz7vmpv3aZsmz8wxPLe/fukR1wnx8Lq8I223dL7gSwaXXXaZ12cWPZEik03c/GT/AZMKDAjCHThwwB09ekwHJfhvDfkKmJrqGj2mef9+19LSkjK4cvEqVepdmpublbQ1NbVuzpw5Ynj1qYwmdYMSA8Sh6ABhjaAHDx5UIc3ykbkmjUDcIgXkQwyQjfIrZVbISGUV2+yH1NrvWbwyXSeZUYN9hMiQ95xzZungBsrFjPsd7KE1oFO80LZcSsJk6PRGI7KAwBCVjIqQmX2kTaEjEHfMwKhpa5VwSUNgycElHFVjJwyagKhSQy4xNowMoQYZIcy78cYbdd/p06clXOtzLVLWPXX6lJDzHHf/hg3qiSE80+QQLnMs5V/Os5FJEN9/+qRFRx5BcLaLS9r1ueOE90d/hw8f1m6Pt9xyi1u+fLnWNCOFjlDGHSUGfZD3dDt27nRPPf2027dvnxi/lG9JRiHUP//D/3DXXJV85dRw8Hz0j+Urf4cP/yDG2SZ7aPLwk3wzW//ChQtdVWWVvgOTy/FsHgPu5MmT8i7N4nXbldDMNEko6Y8hNypGM4nPRfsl+gDmaflKH9MEoSPTWxxIiVA5VSSwRCpU4ursGGIRtN0CDMvIyb0B4XJnJ57We2g8q5bp5JhqIStH8R4cbuZFhw7fKcRvlwp4G94fnZAWLNlGSDP2xaEQiBtC5RKBldPEnPQPAlOeg6wYEWVfqzHG6yrkeDNQvLUapGQATJWDYYIKuS4GynYpCe9qacb70fECIT2ykbZQEIhbMvAxwYAQD6+hEYAAj4Ah0l5bV+u/kcNveGNyf36jM4Yns48I8MiQmgzAf02htIRMDZICMjJAuZYRQ7w/RC50BOKWCOg5hTFqOCZkpYxKDymWBGfmZXxIiNF646QCi/PwtKwreTFw1uRYPLY/trjEnj2TkBayomkFNKOjqCHw6RNGBwVMEIaWy7znpOytoSDGLP/UOMVWK8W78jvgPFsntNZwW4yXA31fZ4y7+ITnziY0cxnYBpCWdfPChYxA3FHCq1ZATq5D73z5j+UAYSfGQkf/VG4tW0PW/Z8AUiQg5bIQxrl+8Zp94mkZiVKhYSHP0a8DyDluAK8qBB48Ts6VJ8MQ7F10snC8krBdR7RE7jORwrNlEz2OHImsCW8q0YU9t79G+ucMMlgZRcYFYcnY2PbeOkb0z7luiVIGOIdtWbKPdfXbDBskufVPlvwuCcnv/ubjRyDuGOCJh2A4Ui6SkJT6VroT8qFkJU8fRPDHKHFlH+ex7s+XHQkJ960Sb1EtnleJKPvITCrFcFhnWSlGOvw4E46F4HqMXJJtziufJCGNY4XnFSGjIcNin00MwDoZVjaxcDgaIkNeiz7OImxEGA7J0EfKy34IpB/2qMQ00sq1uDK9wtlmXUmuVx8//FMGjBoolpAUBVr3ODMGQL9gOmPQd9jCMc3J8XJojeOCjFJIrxhJLUhbdAGintP2xQHiWvGCY+0cW3KdOJEDXF1trV4HG0Cx+q1diWIoXrCP42hG43qaGSin5Xx7+HEiEHeMMOVSO0tNJNsYAPuo5Dl46KBr62jXQQeiPddLF0TJjSurxEDkj/JjkNGJfVkvTqiQg3iQhM4ipD/rEAW9RGU46C1lJAWcF92OnhsVMuWKsgo/l3Vvt6utrtE2cDq+HBORg7QIBbF4tsaGBo1u2J83dysIxB0jUDAKpLfNvHnzdN26yEHgrdu2up3f7tKZJ8ogtGSwTA9DqNQjhuZDpiCjER9yxotBvRthf4qwEBAY2Ww9E4zoIO6YTNCmJVlyX7pNfrjlQx3kQd9v7IAaegiNjdAUp9fmefzp44YUYcbwtAEKwixy+Lfeestt3LhRc3qSESW2d3W6VZdd6i679DJ3/vnna9sgv2EchFAcEzB+QBqoQzhq6c/Hu6zbIjBCQk7E1qNAJ+izuqZaiOVce0eHO3H8uOo3E7iy+GVXpYPu+9zx4yfc119/rWOZ8boM6qCiDOIuWbLEPfbYY7JcLPcgZKb+oEKfe7wIxM0BKJpc/dtvv3XPPvus27NnjyeueN6O7i5XIWExoTRD5PhEJh3aCc20TEzYFDAqpKim/58NCaW7e930adPSYfLFl1zsbrzhRnfe+eelB8lzfibioj/0CMlo9+aTpuhzy5Ytbu93e9OkPwtyOuehR5ZMWIBwPTJlngM9M6hjzZo1bu3atZqZcCz3hrhxbzQWBOLmAEsyuhC+9tprKhgPyunsE3KKAqlFJmSyIWJ1khN3tLe7iuBxRw018GEe0kDNMTXglDUhHt6MIsuKlSvdfffe6y68cKmSyZOWy+h/0FivS9DKSCitQJRr7dy5w7366p/Fe36lOuOaceBe/pjyyLBJys3VrqOjU++3atUq99BDD+vH28jEe3q6NRPHJjK/0dgQyrg5AIJCVAyFzzMyJA7ltDOyprJKuxBq6CVQwxEF019Yy2GyHWR0omlHGmYS+Y0oBvKgDyqN8ILffP2Ne+ONN7W8CcF0BhA5Vkks55Hpku1yZSun7t/frEWerVs/1+sBPU7bhD20t5Wcic4htQ2J5N7olc4utCRw/qJFi9TTnnvuQh3yCThW75wnPxk87hiBAVhObmUrxn8yz9Mbb77pmg8e0BE1/I5CUTRKA94YQnLnBZKMXVIeJcOEGpCYcbaQkXHFfKj6vvX3aSUieqL5hjG6fGeYGmtASHvyxAmdgohPbFqoW9/QoBVLFHF0Ej4BGYnWdss2x/A7LQVk4MzpxRWZ7ocPtj3wwANu+bLlmsNgK1bPgU1Yd9LxIhB3jIgml4VLkBOjYajfBx9ucQcPHdLPZLa0+FkTUZj3CtExsAHjBV4TYjI7JcREF6od0RGk4rs9a25eo+VNSEfadwrZqVhi/fjx4+6JX/3Kvf/++1oOFUXpuURIp0+d8pmC7EMo4vBzT3ePq6vxbbidnR06TJKv2F8qofHNa252K5avcDPPmanPQl9xzsU+yCRoJsqX/gNxcwTJZoQk10UhCG22J06e1PmLTonylawoXc5hPS/ZbYD3uJLufLF/165vNeLBY+J5yVAthP35z3/ubr75Jh0jS5kW70fYi27+37/9m9u8eYs22VDBxFQ/1EV0CRmZEfMC8Z6NDY065JFMgswAf9kux+Jx8ezMKELmAXnxuBAWe4D0rGMj2ArPwzaSDwTijhGQD8EooiAZURjlLMul86WkgMygWYZQlujmySefVPLydXlIAtkgN/NLPf7442716tVuWuM0Pe/Q4UPu33/57+6LL75QwpGZUnGEXhk5dfOaNe7ee+918+bO0zoLHassZNfBGehVaewjLs2YRefo2opOkJZ9ZitmCyzzhUDcMYLkQlBENOlQCuGQkjrlfQ204akVCfKpvKkMUrSju1O8XL3O/7x37173wgsvuK1btyoZSf/urm7tucY45P/+93/vrrhitXjnXdqER3hMOytFHMJdvC2elnD3pz/9mZs5sylNRtWpZNQaUcl2b1eP6tjqL4ZTyHTMeWYr7CNj5zpsjxeBuDmAJLOcFGj5RRSI+IEFJGnqC3vyh6JQsiKkdl6At20X4lak6heYrXH79u3uiSeecIcOHVKCIHi/EydO6ERwVBq9+uqr7rPPPtM2dsJl9DJDQt3jcgwTxhFaQ/whpEW3ci38LLr3gzb8c7CN5+VYswHA+dwfG+EYlhxnGcB4kThxvQlnsFdumzL8ofBHajAyjkfL/czcAVF5bmuCMGjO2w+F6cdafJVTvApm4lXm38uMUX/TPRGwY/D1E8GAXL9PpE1IS7kV4NEIl1986SV36OBBJS1pj14gKGVcCEXbq7b/ysPTtMPEeoTHP33kp66h0ZeF8dIcC8l4FUJywmW6LzJqymyTYxCDTycvmpGn7s969LjxIlHicmlyRqrA1Wxl2xTPy/AitL9Z7xUMXo1cjiNRHQmUIxJ7qQIFqepTNv+giQUdaVspepF/1oUP5vqPh7Hqn4Dpc9ifT0MdDvRLPMOwupqqGrEzTxCin3fffVfbZQmhAXMo08MKj8fvrDMume8sMQn8DTdc7+6++263YMFCtT21v5hnTyqNx4pkiZte8udfWj1pCnQzI8SwHIkcksdhn6y4KsndcoXeu1BSeSIgL5zU66IPQjx0Q3NIFR3pJaNFf5ChJuXxMPaoRwa2nW9wdYjbLcStThGXYkplRZU7eeqE2/TOO+7VV15Vb0q7LHNE25xSTCBQU1mlH/269dZbtSKK6WsBv/PsSWY6+UDixPWUBZ6ySmLZhT7J/QA1sSQ6oQ5V/LR3EdqQwLmCUGoqwcpcSQDyWTmeMFO9rv9hiIFzXJSoRE/D9+ULvC4VVGQeXF5tTSICeipxvyM/HNHy7AebP9DMRqM6eX4yICqtCHdvv+02betdsGCBOg+e18qlU5y4EirL5VV5KX+Q3ifrhGDkhIcOHdShUSdOnNSKBo6iLMHoi1yhL5V/eylcyAsn9bpGPtorF0o4OXvObB2JQ1OJVrakjBxTQszokyYubeZcW3s3yS0sCtBnENs6duyo2/j88+7dd94Ve/KVRTgEPrVy25pb3Y/vuSdNWq7DeTwzkV8Sz5xPTABxxaOSKPon65LClHupet+9e7fbtWun+/qbb7QyQT9/IQlHQmriS2Ln+nCJvVSBIkkz02564skgJB0SaEahS+GKlSvc7JnnqLfH0DF6hOMQdJgUAdAv5Vv6DHs7Y14tby+s41XBDz8cdn9+7TX36SefKmGpTb7k4ovdww8+5BokeoDIPKs9J8+f74qkJDBBoTJKTfX5lAThcxe0p73++hvuwIH9OgaSMMdmJdSEJHwWBeT6cHpeYWeaeUWSoTIelSIMRi1slIy1X8qEc9xNN93krr36Grdg7jztsQTIdNEfxp80cf1XFnw9CLZimQagXE75m3ItXRtp3+V7SvR0uvzyy938OXN9+Vyem2eE1DZogevgnQsZiRJXO2VLglJjbMRFsZ9/vtVt3PichsdazS4JRc6H+I7cQlj0Ta1lDjDSJmjLBQf1eqn1fANDNk+EkTMKCh3Nmj3LXX3FVW7DfetdkxACY7ewk2NBUsQFZOsQlFptMhdqvbkdJs1Adt98I95ThIoovtDAMzJLBXUqdFuEqP543w7Lur1nISNxj0uZA6WTuJRzGff44osvue3bv9REIuFIzDNS1iV0oRKERKyWnJIcNQ720NHk5Xrs1+tGwmwrX7NgjTf2RxYZRlDVeLxutlP5ejs1yRg6xzFsEdDcMmfmLHfPuh+5m2++OTX7g6SsiBIGnSdIAJ7FV05JlCZhsgHdkoGo5vX+3vPzXCzJdNhrXtX227Ob1y5kJEtcuXSvkJbEJZVR9BsSHr/xxhtaTS+p5dq0c3etKLrSLVu2TJRPw3eFq29s0Kp+9bwZABlJbK8YD0t48/QeHBNdeiT20klBHjhbZsOg8qjxDofqIAakZTaQxoSZ+/fv1+lZSF96GxFqyoZbtWy5+9nPfqaDxk0fppuofvKNbDokrWJNW3ZbhVqxItlQWUjbmzIYPClftvvjH5/TKUL4jVy85cwZVfjlq1e7NZJr092MJ9JvzspK3MOZPZhhGGlVZFtnWYwhbbEiq6KEQNrxIQakaRxIm2wEw3u2t3dotETH/I8//lg7Lujg8a5u11jf4H7ywANa5rW2UvQLJou8ZguZwNMUg1fNhgkp4xImU4v8wQfvC3H/qEOoCFNot6VC4J577tFQixo/62UF0aOfiRgLPOHltVIGM/R/X8M9Ag0KEtk0xatSGEkCnalKHHoaNTc3u3/9v//qDhw4qPt06lHJNOjnu2HDBu0zjG4hLuSYLIKMZNZJZiYTgURTlcQhASEolVN09qaCgFAYMlMOmT9/vn5JneFYVFR1dHYouaiowoPEieQ4aqhRUVXIfn5Lf0pDl/4ceQhZyj6Wtr+opC9WII8yOxfR9Mh8XQRydnd26nELFyxwSxYt1q840G2QNEfPDGanbgJ9mwQkh8SzQ8hJ5QZLqtw9u8RexAgIwRjETHcz7assBmAdxqEhM+LFibYt6nGDEiVxNXM/VVRpt0mVYeen9xeR6DvFCG2YWrMcI/weK6SJXD9OuD5pSubBBOAXL71IKxLrxOPyO4SlvAtZ8cJWMTWZsBA9ToodiacuhMR7WoKpt5R0I0Om/VZrnGUHXpljJcm1UopwWg/Ck2SQs72R76tqwoyKCFOVqIgnp0lAmwXEyMhMik147jjpk6IFH/KKk3TpIAfplSgJU69lyhbRCeQ9c/q03Ldbv5tkHtbX5HoUQ5NKMSPZUFmkStvN/GTTlH1QLjXFzO5PrqzlWFGwloVlaedMk7JSGuwcJtonVc6Piobg8sc9dBvj4Te9V2pdhPsNs82iF/9ZDv/1OW07l3eGPMwAgYwEoZ7+6dXIMCOCjqiMIt1PCWG1pl/SsbKm2pVzffmdtGaWQ7ohUuQxfQYkg0Qrp1A6l9c+ya0tbuMLz7vX3ngjRaAy9YhMGv2LR3/h6upqXU0lBJfj9WTKxynlZzCAaK2l9oDRsZcDbtsX29zrco8eyrIlZjfZVEV5s048IWHrvPnzdZga/YlrJXSlsi5b6MpVEUsuXUZvJWkNWbvFq9Oj7fU333BP/PpJV9dQr8fikVeuXOke/8Vjbv6C+bLPZ8DA1mw7ID9InrhCJoiaibgMKDDi1mcgbtoLZyCuzxAGP/ZE2Zhmpv/4j/9w+w8ccL1yrnqGDIi7ZsEji6oqJXOUBNMMjXImfYmZzWHWrFlat0DniDhwVbJBUsQkE3G7mDQtQtxauSbHEqavWrFSP7exQDINrpC+zpD1gHwh8TJuUtCQUAwKAlp5aseOHe6rr77S2fbqkdrMgndmOpKiEylCxImfPrRMm2OY55n2VghLOpEeAaWFoiUuRorXJQS0yi86bzD0jNAZUuOxMwmg50wpCcQmHQBpQZs46cOIK6KSgNJC0RIXL4s30YooMVRAl0k+CQLYl+2PSLCUhOICQvGDzIsOEUwEXgxjSwPGjqIu4+JZNUwUEltl1XfffadfFGilL/QUAu2x1vmfyIMJvZmwm4xNa5dF4oABhDJucaGoiYuHsfItxGWdsJAXytqpXq9ZfMFGhmQYBGqUf7wbxQcjLEvL3OJAegXiFhcK2nozEdbAbxikJ+Hg+E+MlsonapnjhFpXxmQmJ9UpGb4dlUzHjyBVWaS6Rsu4iKULaWI9mcYF04OReXhen9r0FA2YCBSF28kUFNi+4eTGaH1HgsnC2R7GtqNi/7Mc/lucjAQyLUsPiD48bcYLS1f+j+okpQn9fygClZNC0VZOxUENSv7RP9db2MTKoKHKhu33/w2BVo/JPwZE5AOBIFMLJUVcSGsCMObJEk9ayIlk+V0wdL+dc7ZEjxsuAVMLRU3caCgYJa0Rd7Iw/BmybQ9fDwgYDUoyVJ5MAmS7d7Zns9+ySUCAoWiJG+dtbXsyEX2OTM80fF/0t4CA0SB54mYpgFn5LOMhWc4bDaDCZMhUxHBVZdVrQF6QKHExZBr2abxHAAtuWi4/pmdoYH/K6tPnIClPlK1Zg2P4nSXtlTQHdXR1uraOdtfa6aWtq0O/pYp09HTpkn15l84Od+rMae0EwqyIfH+VZ7IhdTyjvRP7+I2OI/QAY2AAn2NhAgGdREDAPj/BwOTN3TQSTDOqQ0ReL6ot269QpQ6TgJyQaM8pLt0v2qGXUmtri3v++ed1ala2+USj9Zx6NDUel89JmDZpAfSzZchaBuJGH9t6CUGCv/zlL+7dv7znTghpyCwynatEyJIZjAe18g6d7R2uqalJCch8Wj/5yU+0IwTPwrPS44uOEseOHXOffPKJ+/LLL92RI0fSZGYIHjNfPvLII7pOOtFxJCnykpJZe06R4chfZ49kIpIxvvbG66nxuA2aCfd19bhVq1b58bjz53mdyf6zWnEzWdqwQwJGh6IlLgRgP8aMx4IIe/fudf/yL//idu/Z4xpnTE9dafD17FV15FB//l+bp2R+4/bWNu0nzLA6+g3/1V/9lX7OMdqriXd/88033bPPPqueGaJDWpt0jWP+9m//VgfEsx/JlA75ACkRiFtcKMz4a5SAgJARQ4HIe4SwDKbHeHwXwSrtDshX5ZgOx74uh/diapx8C2Nh8axMfsd9Fi9erF4Xr8o9IS7Py9SzfM8GL8txCxcu1DGznMusFWyz/Oijj/QdOSYMzQuIomiJGw0UMG7IqwPoJbS078aQxfOnSz1c/pN/eDSmgc23MCkdGQielnGwkBZPyYem2B+NEnx/6WrdZ+VayrQI3phnxAtDWt6V6wQEGIqWuEYAjBph/ZJLLnE33HCDbltll4VseryE6Aw6Z7rROvGA+Ra8Kp+hJCMhVIaAjBG+8847dR+e1p6VsbL8RlkWT0yGQ1htgwLwuGvXrtV1vC3PHxBgKNoyLkSwpZEBI+ebu19//bWW2RRyqp1t19HnSuC1uTrDGHuFoJAQz0u4zPxP9rx4WNYhK78fOHBAv8lD2Zbnt/dggnjKjRyH97YRQkmAlAhl3OJCssSVP6YNRZGEgBs3Pq8VMmyPhrgYTCbSGqKkZR2DB9zTXip9esqYPM4yqSEYT4JAWsrTPDck5Zl4RtZ5TvZHk9zWo+/JsYTIEJtzICzLpMATZCWubPCcXfJuZZUVZxO324/Hffyxx4cQl2sM0d+Qa6YQ+Tlg9Eg8VMYuPcFYFxILYYEpNGLDClRutBqi9Aww78RxRloQnYuJ8FglfWW7ejbwULkJpAWWoRgx7TkBSxOOQaL7IC2wCiv2Rck+8fDPNTzheKahjzWZzzi1UABlXG/wUQOYbPWLmeb8JxaeJmC+pdBQgI80ZTCpxDWCetL6LcLr6LrP1c+WkYBNTZYkhUzpkBdJpbn9yU7djgrH6eoQkKGkVgMmFJPrcbEFNZKzbcIbUGojIHFEk1rX+S8qukitCDQCUNIG5k4GJjlUNkOQZSqXNy/gdw1uZ5KkkOlepS5D095vR8UfMxTib4PHnSRMbqicsoXhy8mGGXChSZKIXp5VtqMSBYTVZfC4k4bEiWtqTS8jRnDWb6nlRIFHySxnk6YQJCnolVOJn74L2xHRdLFnSB3LTjskYGKRKHE1ZxZl831WbdqortFv1/b19sqN+ep8pTtz6rR+tY/eTAwWYNROV0en77Cg5ajM0t3b43r7+7xBidBy29PXq596VDCIABlm8HY8HwVDOI+r0I6JdPfL+WXydDTRFJhkSod8iK+xLnMDqe3+8jLXF5F+uffJltM6pzJf7GNUEx/D5pu91TRd9Q2kPxhO4qL3nu4er8Mo/G2GSkBOSJS45NAYBR0I6AU1Y/p07YjPd27oZMAAAAYGfPPNN6pkSMuHkiE5bbD6vdcYoa2Tb972CIH9B7Lpz1spBi5GI/vSiPDWVo28TLjeLWRv7+pwHT2dSuDy8spUBtCTUXrlt0zPUypCZjhcevp69Bu4fCd37/d73XvvvacZcNP0Ga6tpVV7d82ZPVvbnDWjFLG26YBkkGjPKcgIQVEs3pSv6TGMjc+EoGT67rKf7n1862bdunXasZ799M+tb2iI8m4IMIm29jbNFCrFW0NFn1GUu+7OTlcjmYKajXoRT1RdF+Ct2Yb8nV2dapCVQti2zjbJVCpdbVXNlHMGIxnB6ZYzbtu2re6dd95xu3fvkbTz3rXlzBk3+5xZ7qePPKK94CAsCMRNFon3VYa4BmaFoL8y3R7pkM9v9Ok9ceKEKvrSSy9VbwtpITueLw4QFsOgM//KVavciuXL9VqwVM2FMM3eLErc1Hp3D9/VFa8v1zly9Ih7e9MmzVD0e7KtbTw8Z0wJ8KZMOhAHUpS0JuM9/MNhHQDBNj3S+JzpvNlz3KOPPuouuugi1bmeI7+j30DgZJAocQHKQ+jyhwfm+7V/+MMfdNwsBkB/XPWu9fVKbPov87U5yqoV5OoxYNhbXV296+zskONnuMcff8xdd/31Sjg8KR/BGg4dWCA2xHN0MeJGjOr77793zzzzjNv+1XbXKJnAqZMndaSPmFvqrNKHGkCW1yWt0CEjn8joSPuq6ioNl2ura93969e7O26/XTNd0zWEDcRNDokTF5LYLViyvUm828svv6wDydlG4SgYLwuBGQ1DuZXtuIdjkAIGBMH7xHOee+5C98gjP3VXXnmF6+7qVo+ukHvaNbg/noWBANx3j3jY3//+9+6rr7/WzAJj1AqyLFZsnqakIK+bzQjwqu0dfoxwXa1ERJJ+hMiN0xrdNVdf4x7c8IBbsGCB14f8ht6ifbMD8o8JIS6CEk2RzP7w+eefu7feektrKCEuS3JovDBD3Ng3OMbnbFCWxdva+NUT4ilXrVzpfv7zv3bLll2Sziy4hFHX7+Irf31u166d7o/PPee2b9+u4TGh89Gjx9z555+vtdypgzNiqhlkp2RmpDMZXl8fo7DKNaOjTMtY43OaZupxmjGKEPGwJDNGAvKPCQmVyYl9LXC5hsUsyZkZO/vKK68oaQmZKetS68xv+uX4rJ5tQHN2SEhtL+EtYTbE+8d/+id33rnnqjdWr92PQdE0UaYE3fHNDvfaa3/WsF3HBosh8kw8ow5azxY3kg0kmmKFB/IpMl/qEAiVZ8+Z424R0q5evdpHNoxBTqU1aQjQoRZZJFMNyD8Sr5zKdnl+Y0pSBpM3NzeLxzuqoaqGo6JwjGEghkMtZzhvv3pvroNH4FzWmVniv/3d37m6+jrXNGOmZB69PsMQku7Y8Y178cUXtWzLsYTlGCSPSfhNRRehYTZMMd5qxgcJZ85skozxArdo0QUaGZHZ9YsHthkzLRKJRiRTLTqZKCTucUd7eY4zIXeXNV+ZFIPW1jb34Ydb3PPPv6DeuqGxwZ05fVpD7JbWVnfDjTe6hx95WJuaCPG6pNzbLGSlbE3tKGVpDBLPAKprqt2dd9zh1q37kautS5WPY1CSxjiimga0Mk+9KB0tBKoniWSszB8IO3FInLjZgOIBSjbSGlgjhI0DIfjx4yfc22+/7d55Z5N6TjpgdHV1uvLKCtch3pepTW+95RY3Y/oMt695n3vpxZfcHgnP6dyBd2bWR9a5P23Id911lzYvVRDuTTG7i3ZFHY5oHYXpybZtH2A9YGIwqcSFfCCq8Kgx9Gm5NDMo20LvU6dOS+j7gtu8ZYsSkSlyautrXaeExnjT++67zy1etNhtEoLTQ0tnxcBzCMmphKqtrnF333O3W3vnWilf0w4sGUaVL6fFYRKTLBGkUz/mtXhf04ttA9tn+wMmDgVDXMgEeByEMFn758agv9+fyzX27Wt2b296223ZvMXXNNfWatmYuacovyLHjx5Tz4FomUyuT7vk7bfdJnK7mz6tUcJA34zRjx1mscXJS7FkMMLrpnUC0FOUwIjpLmDiMKnEBdzel5WG5er8l8Wa6BTA/E6UXSEbFVtPPfUbneGxobFRZySkayNeuF28sNZ4ipdlknTmP6YW+q61a0Xuco31DXorPHSdlH0hbrZEST1iSSFbqByF6Qh9mcTVHJtOA/KPgiBu9BHSxGVfebzS8bQ9Pb2a2zPKCOzcudP98Y/Puc8+/yz9CRJCY65FBZVcXXv7TJdyLJ72tltvc00zZuioFu4Loesb6nWUTFyQrk9UarYoCTWaVzLCZlofjmy/BYwfk07cOPBYahyp7UwgXKYdFhJ7AxlwX3zxhZL3293furnz5rnDhw5hPdrJoq1Vyr+1Neplb7v1VtdEk4b8puGfXi8V9slGQSZKQgjUKj4ULHFHQqaaTkhH0xDh8i9/+UutqKKHD50GDh8+rJ0FfvSjH+lIJL4kEDoIBBQripa49tjRUIwyKvvZ99lnn7lf//rXSljKt7Tb0jzEZz3onQUgrlWs2HkBAcWAoiWugd5VAM8Jcen2CDHxyPSHRvC8DBm8/vrr0yNYjLSBuAHFiKIlrpVreXwE4rKtHSvEw7KkGyQE5lh+h+Qco/2X5RxIa9cAgbgBxYKiJS7eFeJByEzEYx/HAMq4EBjiRr1s1NuCQNyAYkFRh8pRwjGIgG28LMDjQmrEwHHWZmzeFkSvExBQDChq4kJOgEc1UkLIKDmtDEx4TMjMfsq3UQTiBhQbir5yKiBgKsIX8gICAooKgbgBAUWIQNyAgCJEIG5AQBEiEDcgoAgRiBsQUHRw7v8D3veeEc3RApsAAAAASUVORK5CYII=;fontStyle=0;fontSize=12;whiteSpace=wrap;" vertex="1" parent="1">
          <mxGeometry x="-485.12" y="746.0000000000001" width="82.07" height="80" as="geometry" />
        </mxCell>
        <mxCell id="s-O5aCYOvA6fl5G4NqDx-12" value="Student" style="verticalLabelPosition=bottom;html=1;verticalAlign=top;align=center;strokeColor=none;fillColor=#00BEF2;shape=mxgraph.azure.user;" vertex="1" parent="1">
          <mxGeometry x="-347.63" y="510" width="71.25" height="70" as="geometry" />
        </mxCell>
        <mxCell id="s-O5aCYOvA6fl5G4NqDx-38" value="" style="edgeStyle=none;curved=1;rounded=0;orthogonalLoop=1;jettySize=auto;html=1;fontSize=12;startSize=8;endSize=8;" edge="1" parent="1" source="s-O5aCYOvA6fl5G4NqDx-16" target="s-O5aCYOvA6fl5G4NqDx-6">
          <mxGeometry relative="1" as="geometry" />
        </mxCell>
        <mxCell id="s-O5aCYOvA6fl5G4NqDx-16" value="Query Embeddings" style="shape=image;verticalLabelPosition=bottom;labelBackgroundColor=default;verticalAlign=top;aspect=fixed;imageAspect=0;image=data:image/png,iVBORw0KGgoAAAANSUhEUgAAAlQAAAEUCAYAAADtKKjYAAAAAXNSR0IArs4c6QAAAARnQU1BAACxjwv8YQUAAAAJcEhZcwAADsMAAA7DAcdvqGQAACALSURBVHhe7d1prB1lnt/x31N17uq7ejfeDV4weMEsZjE7TauX9DTTdHpmklGkUbo1IpooL/JilBctJCJF5EWUSFEGTTIMPdMzPdNML0DTdLODMRibzRgM2GYxBgzern23c5dT9eSpcx9GyYie9r11zuNTPt+PdPrW8y83dWr/1XpMuVy2AgAAwIxF/i8AAABmiEAFAACQE4EKAAAgJwIVAABATgQqAACAnAhUAAAAORGoAAAAciJQAQAA5ESgAgAAyIlABQAAkBOBCgAAICcCFQAAQE51+XFkMzEmlUelyQnJ8tvLAADgLCm1SO3tsu2dLqDU7zxSzQKVGR2WOXJI8ctPK37rFYIUAABoGHb+YlWuulXp0vNl++dLccn3qY38gSpJFL+5y312K3pnj0uCJdnuPtklq6S+OVJU2y8MAABwxkaHZD79UOboJ9L4mGxXj5Irb1VyyTbZWd3+H+WXL1AlFZVefFzxsw/JuC+ZXnCx0m1flXr63Rfuldra63p6DQAA4J81OSkzOiiVRxS9+ISiPc9Xy+mi5Zr8vT+R7eyqtvOaeaCytnp5r+XhH1aDU3rLt5Vsvdn3BAAAaDzm6MeKf/xn1b+2t18T3/1+Tc5Uzfj0UfzWyy5M/Y3snAWq/MF/IEwBAICGl91LlXznDtmV62ROD6j0+D/IjI36vjM3o0AVnfi0+gXU0qr0mq/ILl/j+wAAADQ2O+88Jd/4N7J9sxXve0nRe2/5PjM3s0D16nMyA8dk++covfR6V+A+KQAAUBx2zkIlt/+xNDGm2OUa2dT3mZlpJyEzMqjos4+q91Alt33XFYzvAwAAUBx24TLZlRcqOrBHZuC4r87M9APVwDFFh/ZLs7plz1vhqwAAAAWT3bp04RYXbiJF+17yxZmZ/rW6JJEmx5Vu3sbZKQAAUFxZjumfV31bQbx/jy/OzAxufrLVy33pms2+DQAAUEy2pa16psp8dthXZmb6gerzt1Z1dPoOAACAgooiWRNVX1CexwzOUAEAAOD/RaACAADIado/PRN98I5a77tblTvukl20zFcbQJpKlQkpyd4jMfOfJwQAAL9F9kxaVJJaWqpPyBWZcbkmvv8emcGTGrvzXl+dvuIHKmtlPn5f0Y5fyQwPuC8Y1zROmclJ998MvLBkT1KGFrm1I+RK4eZbVcgnRVM3XbNxDDnMbF7GsW8E4KerLbkNXSjZOugOaGzA8TQVt166eRl2mJWp4YVafrLpmlSq4xnU2dj+ZNM05HbWTVubDS/gMLPlp3qvTshhTkxIrW11WmbdtiZx631Pv9Lrvy47b3GdhlN/BKqM26jGv/57mT3PK7noMk1uudb3qI3st33aHvhLmWVrpI5ZvhrArid9R0Dz3cqwYq1vBHDsE7cwuZ3TnAW+EMDeXdKSVVL/XF8I4JXt0qarXKgKFHBOHlPq1ovxW2/3hfozp46r9OZLmrzqS1PzNIDWX/xQdun5msymbSCtv/6xJrd9pSY/onomzPBptT3xU5kFS6X2gA8BnY3tz9yF0qr1vhHAkUOaWLtJScBhZstPsu4SJctX+0r9dfz5f1b67/+L1N3nKzU2VpZ54dcyrz2v9LLrldzwO9Wn5YqmVoEq8KFP7WQjXvqb/y57+oTGb/9ezcMUAAD4Z7R3yN74Tdk/+lOZk0cVP/zX0uiw79l8ihmoKhVFu59W0jtbE1ffKhvy7BEAAPhH1u2L7Ze/I2NdqHhjl682n0IGqurLt/bvUWXd5nCXUgAAwBdr75TdsFXxc7+cekCsCRUzUA0cVXLeCtnOMPcyAACA32LJqupv/Eav7/SF5lLIQBXteV52VpdLVsV8ogAAgHPSsguq++hmVMx7qI4eka3XUwsAAGBm+ufLfPaRbzSXYgYqm728k7NTAAA0lOzK0efvGWwyxQxUAAAADYRABQAAkBOBCgAAICcCFQAAQE4EKgAAgJwIVAAAADkRqAAAAHIiUAEAAOREoAIAAMiJQAUAAJATgQoAACAnAhUAAEBOBCoAAICcCFQAAAA5FTNQxSWZNPENAADQECqTUkuLbzSXYgaqBUtkTp/wDQAA0BBOfCa7YJlvNJdCBqp0w1aZ4UHXwVkqAAAagtsnm8MHlW6+xheaSyEDlV24TNHQKRn3AQAAZ585tF92rKx09QZfaS7FDFSz50sr1qntsZ+4RuqrAADgrBg6LbP9l0qv/pLU3umLzaWY91AZo+TGb8pesEHtD/xA0fEjXP4DACC0yQnpo3cV/eKvlKzZqHT1Rt+j+ZhyuWx99xmJPnhHrffdrcodd8kuOvs3nkUvPCrzzmtKW9ukrl6lvf2uGPu+OU2Oq/XFJ6V550nZfz+UA3t9R0C9c6T5bjxDGRyoBmN19/lCAIcOSHMXSLN6fCGA9/ZVz6YqCnTsMjzoji0qqmy+2hfqz4wMKf7woCrrNrlGmPEsvfSM7NyFSlas9ZX6K726Q8n6LbJtHb5SX6Y8qtLrO2X650otrb4awNnY/vS47faCJb4RwMAxVRavVBpwmKXXdihdvErpvEW+Un+tj94v+/U/lDpm+UoNJYmUncw4dcJtz08qvfR6pRddHnZZrRHjck18/z0ybjzG7rzXV6ev8IFK1n39kUGZox8rdhtZc+SQbMUl5hpwu/up9J3tDLOdfyiViu8IKBvHUDv9TOoXuyjgdM02AKHnZXWYLuCHGmS2PriPLYV7bNlkw8zOEMclTWtjkoPJHs1289LW6uDpDFSHWcrGMczMNNnUzLYF2fLK9qe20rS6XtqAw6wuP7EbZqCDjoyZHHepqj3rmirUklsX0mWrlW65TnZO4APVGiNQAQAA5FSrQBXwkAAAAODcRKACAADIiUAFAACQE4EKAAAgp+A3pSfHP/FdAAAAtWM6uhRN84nDwj7lVzl8wHcBAADUTtTdp6hvnm+dmcIGquTEp74LAACgdkzHLEWd3b51ZngPFQAAQE68hwoAAKBBEKgAAAByIlABAADkRKACAADIiUAFAACQ07nxlF+aSHZaowEAAPIwxoWC7LyM+1tgvDbBMeURRT/7PzJj5akZWw82df/twCfy0myYIRfQzxeBwCtFFoJDjmd1XmbDCz3MgMtP9cCiSQ4ugs/LwMtrpimG+fnyGnpeZh2Bh3murZtuObF9c5XedFv1b1E1d6BKEkVP/1zxzseldZuV3vovpZY237OGRocV3f9nSr/2r6W5i3yx/sz/+FNN3Hybm9ixr9RXae+L1bN8lU1X+0r9xW45Kg0OSHMW+EoAe3dJS1ZJ/QFX/Fe2S5uuciNc8oU6O3lMen9fdR055y09X1q03DcC2P+6Jq68RbZjli/Ul3Hbn9LrL6hy8VbZrun9lEYerU89oIltX3Hb1FZfqa9438sqZS98XrXeVwI4ckhq65Bmz/eFANx4avi0b5x70pt/V8m1X3UztMVXiqN530PlUn781M8Uf3hQ6fe+78LOH9YnTAEAgDMSPfVzxQ/+QBob9ZXmU7hAFT35M0XvvaX0K78vdff6KgAAOGvSVNEbuxS9udsXmk+hApUZGVK86wml37lDKvD1WgAAzjkT44of+oGUVHyhuRQqUEU7HpFdvXHq2jcAAGgs2T3O2X25TahYl/zKI7JX3uIbAACg0USv7fBdzaVYgSp7nUBbu28AAIBGYz497LuaS+FuSnezyv8FAAANJ3v/XhMqYKACAABoLAQqAACAnAhUAAAAORGoAAAAciJQAQAA5ESgAgAAyIlABQAAkBOBCgAAICcCFQAAQE4EKgAAgJwIVAAAADkRqAAAAHIiUAEAAOREoAIAAMiJQAUAAGonbvEdzaVYgSpyX3dy0jcAAECjsQuX+K7mUqxA1TdH5pkH3NyyvgAAABpJuvFq39VcChWo0i3XyRzaL3PyqK8AAIBGYfvnKV27ybeaS6ECle3uU3rT7TIP/ZU0MearAACgEaRful3qmOVbzaVYl/yc5IoblJ63TOax+2WOHPJVAABw1rS0Kr3xd5SuvcQXmo8pl8vTuiEp+uAdtd53typ33CW7aJmvBjY+pmjfS4p3PTn1HTq7pPmLpVKNnywYL8s8+7DsFTdKvXN8MYCf36vKpqvdxA6Td2M3T5WmSlZd6Cv1F332keLRYamnz1cC+GC/NHeh1NXjCwEcfFNa6aZrHOjYZei09OmH1fl5zpt3njR7nm8E8PH7qridhW1r94X6Mm77E73/ltIVa2Xbwx3xl15/QZX1l7uOkq/UV/zhAUWDp6RFS30lgOy2kZY2qbvXFwL48KBUHvGNc8ycBUqu/brSDVulVjddC8a4fWB8/z0ygyc1due9vjp9xQxUGWtlhgakkSHF2x+u3luliXHfs1bcpMn+my55ywQ8mec2pFPh0Ey16y2pTP2Nw2xAq9Jk6uGCKNA4ZhI3zGw+hhxmxU3bbLqGGmTqpmk2bZtBdsAR6KCjKlt+Qq6X2fYnWzer62XIZXYi7Himbhyz5TbUQUemesDhxi/09udceqCq1Kp09cVKr7zVHdwsqt6SU1QEKgAAgJxqFagCHhIAAACcmwhUAAAAORGoAAAAciJQAQAA5BT8pvTkxBHfBQAAUDumfZaiWdN7NU5hn/KrHD7guwAAAGon6u5T1De999MVNlAlxz/xXQAAALVjOrqa5wwVAABAo+A9VAAAAA2CQAUAAJATgQoAACAnAhUAAEBOBCoAAICcCFQAAAA5Ffq1CaYyoehnfyEzOiylqa8CAIC6iyLZ/nlKbrpN6ur1xeJp7vdQ2VTRsw8rfuZBqbtPWr5WKsW+Zw1VJqU9O11YS3zhHDZ/sZuOq30jgGNHpNjNs9nzfSGAbF5OjPlGQFuunRrXEAaOSSfd5/z1vhDA2KiS4SFVLr6iuoENofX5Xymdt1iV1Rt8pf5aXnxC+tb3prY5IZw+qejxHyu96VuS22mFEt33X5X+wZ+4idzhK/Vlnv2F7OEDmtxyna/UX3xgr2xnl9LFK32l/lpeeFRR72ypb46vBLD7aWnT1W5etvpCjU26feRH70qnjiu95dtKrvxSuG1dDTX1e6jipx9QvPtJaf1l0gUXuyW1xU0RNyr1+DSTLxr/un1MNsB/Uqvz52zJxvWLvk89Pp+v0l/Ur16f6nx0f7IwFepTHab7fFG/en2ycYzd32yHEeTjhpXNz2zYX9i/Tp/qvPyCer0+1fUj9LzMhncWhln9ZN2BPpl6DrO1TVrlDt7WX6po1xOKf/lDabw8Ndwm5KZIsUTPPKho91PS8jVSW7uvAgCAs6J9VnWfHB0+qOitl32x+RQqUJmxEcXPPyqt3uhmYKevAgCAs6qlVeqdo/iRHzXHbTJfoFCBKtr+iNTpknCpxVcAAEBD6OmvnuyI3tjlC82lWJf8RoekRct9AwAANJTuPkWv7fCN5lKsQJW9GiEu+QYAAGgoHZ0ynxzyjeZSuJvSAQBAozLVVxs1IwIVAABATgQqAACAnAhUAAAAORGoAAAAciJQAQAA5ESgAgAAyIlABQAAkBOBCgAAICcCFQAAQE4EKgAAgJwIVAAAADkRqAAAAHIiUAEAAOREoAIAAMiJQAUAAGrDplJc8o3mUqxAZdzXTd3MAgAAjWesLLtgiW80l2IFqt5+6cgHvgEAABqGtdLQKaUbrvSF5lKoQJVuuU4aGa4mYAAA0ECGT8vGJaXrLvGF5lKoQGV7Zyu97l9I778lJYmvAgCAs6oyKX3ywdQ+urPLF5tLsS75Ock1X1a6ekN1xml02FcBAEBw2WW+kSHpwwNKN16l9MLmPDuVMeVy2U2NMxd98I5a77tblTvukl20zFcDGysr2rtT8fO/kkqtUmub1NHpxib2/6BGkor07hvNcSN83zxp4VLfCOD08amHDHpm+0IAB928rEz4RkBrNrkVp8bL5m8yNCANnpIWr/SFACbGlJZHlKy6cGqeBlB640WlbplNl6zylfor7XtJuuEb7ui721fqbGRQZvdTspdeJ3X3+2L9mUf+VvaWb0ktbrsawp4dsp99rCRbTwKJPnpXau9UOneRr9Rf6c3dMrN6pK5eXwng7VekCy6e2k/WWvY039ioVHYf43aXl9+odNM1brp2+H9QHMblmvj+e2QGT2rsznt9dfqKGagyLuSY0ydlTn6maOdjMocOSJPjvmcNZacxm0HkdoShdvqZLKS6lTDUDriq4gKyprW410apxXcEkG3kUjeOccB5mR2hZtM15KPS2XqZLTshxzMbZmu7G2624AaQTddsm5YFm1DDzIyXpbaAO8Vsuma3cJQCLj/Z8LJpmm33Qvl8mQ05L7NhVqdrHYbptmt22Woll90gnbdCtseF/pDjVkMEKgAAgJxqFagCxnMAAIBzE4EKAAAgJwIVAABATgQqAACAnILflJ4MfOa7AAAAase0dSqa5qtNCvuUX+XwAd8FAABQO1F3n6LsvYrTUNhAlRz/xHcBAADUjunoUpS9QHUaeA8VAABATryHCgAAoEEQqAAAAHIiUAEAAOREoAIAAMiJQAUAAJATgQoAACCnQr82wVQmZR75W0WDA9LkhK8CAIAgjJFKLbILlirZerPU3ed7FEdzv4fKpop2Pq74yZ8q7ZurysVbpbZ237OGJsbV8tLTqmy8Urar1xfrr+XpBzV5/dfd3AlzAjHe97Li4dPS0vN9JYATn7qFKZb6p/dG21wO7pW96TbZVRf5Qv1F/+v7Sv/tf5Ja67B8fgFzYK/0ynZNbr7aV+rPuGWnxS1DWrLKNdzGNYRsPHv6pQVLfCGAd/dJyy5wK2irLwRQHpHee0saL/vCOW7xCj9PAy1H776pyrLVSt0nlJZnHlLlihtlO7p8pb7MqROK39tX3Y9lwafmrJUZG63uR7JtQfrNP1K6ZqMbcHEugDV1oIqffUja84IqG7bKZhvVOjETYyq98Jgql2yr63D+qdbH/kETN982FTgCKO19UfHQKWn5Gl8J4NgnU+M3Z4EvBPD2a7Jf/o5strIHEv23/6j0393lAn+Hr9SXeftVadeTmrjsel+pP+OWnVa3DCnbKYUKVNl49s6WFi33hQD2vy6tWOtW0DZfCGB02B0IvCG5HVZTWOIO6rL9SqjlaP8eVVasU7JynS/UX+vjP9Hk1bfKTvP35mYqGjim2B2ATLr9WF0PBlywio4fUSnbzrphJVd/uT4Brg6a9sWe0Y5fSS9vd2n7qqAhBwAA/AYuBKfzztOk2zebV59T5D4uZU31axKFClRmrKx4+8OqXHGTbHe4S3AAAOC3s739mrz0WkVvvSwzeMpXm0OhAlW045dK+ufIdnT6CgAAaCS2rVN2ckLm8EFfaQ7FuuQ3PKhkzWbfAAAADSeOlWb3xw4cr95b1SyKFajSNOwNoQAAYNpsqVVmokmeTvUKd1M6AAAogOa6J51ABQAAkBeBCgAAICcCFQAAQE4EKgAAgJwIVAAAADkRqAAAAHIiUAEAAOREoAIAAMiJQAUAAJATgQoAACAnAhUAAEBOBCoAAICcCFQAAAA5EagAAAByKmCgMv4vAABoTLbpdtfFClTGfd008Q0AANCITJLItrb5VnMoVqDq6VNp/+u+AQAAGk6ayAwck3rnumTVPKepChWo0i3XKjr2sczokK8AAIBGEg2dlrFWdvEKX2kOhQpUtm+u0q23qvTydimp+CoAAGgEJk3dPvoZ2fWXyvbP99XmUKxLfk5y4zekxStVevMlmcEBXwUAAGeNC1LRqRMq7X5SduU6pZff2FSX+zKmXC5b331Gog/eUet9d6tyx12yi5b5amDlEUWvPlf9pL39sp3dsl297svVOB9OTqj0xm4lazbKzur2xfor7XpSlctuqP34/Abxu28qGh2WFgacn6eOuaXPjV/vHF8I4NB+2a03S8su8IX6Mz/6n7K3f1dqCXRzphtH7XtZlXWX+EL9GbfslA6+6ZafJVPzNIRD70jZOj9noS8EcPjg1DrS0uoLAYyX3XDflSbGfOEcN3+xNDebp4F2xB8eULJoudLzlvtC/ZV2P6Vkw1bZ9k5fqS8zdEqRW4ay/ZhKLb5aQ9n9UtklvmH3SSqyF12uNNt/xSX/Dxqfcbkmvv8emcGTGrvzXl+dvmIGqkziZuLpEzJHDsm8/IzMJ4ekyoTvWSPZU5/Zf9MthDZg0jYT40GfjjCVihvXNOwKUH1a003TQKGxqjIptbaHHc+yC6ods1xHoOUnuxTulllbjw3nb5DdK1GdtnGctaaK9ZYNLwtv1WEGkq0n2fBCHnVn0zabp9nfZhC56XsW5qkNOMxs+56F8lD7FJNOLUPVbUI9BpmNy9LVSjddJS1ZJdvdH3a7XgMEKgAAgJxqFaiKFSMBAAAaEIEKAAAgJwIVAABATgQqAACAnILflJ6eOu67AAAAase0dchUn6w+c4V9yq9y+IDvAgAAqJ2ou19R31zfOjOFDVTJsU98FwAAQO2YzlmKZvX61pnhPVQAAAA58R4qAACABkGgAgAAyIlABQAAkBOBCgAAICcCFQAAQE4EKgAAgJwK/doEU6nIPPVzmZOfyYyNSnZaowIAAPKIYqm9Q+miFUq3bJNm9fgexdHc76FywSl6ZbviX/+d0q5eJRdukZ3mq+bPyOS4Wl55TpWLLpftCreQtD79oLR2s5s7xlcCOPGp9NF7vnGOikvSsgukntm+EMCbu6QLL53a6IRw+oRseUSTm6/xhfozI4OKPzyoyrpsmQ1z0rtl91NK5y5SsnKdr9Rf6dXnpK/9K7fD6POVOhsakHnsflXOv0i2s8sX6691+8OSG2awZfbTD6WJial1M6RD+yV+Cq22evpV+d3vyq5aH3b/lVNTB6p4+y+lPTtckLpEaf98X609MzGm0guPqXLJNlm3oITS9siPpA1XBNs5VR39WHLz9pxWcoFqpVvR+6f3swS5uOCvTVdNhbkQTh6THR3SxNabfaH+zNApxe/tU2XDlW4DEWaZbX3uEaXzF6uyZqOv1F/Lzsekb/+x1B1oW+DCsXngPk2uuyToAV3boz+W3DCDLbPZgZzb1irbCYd08A23vhz1DdRMS6uSW25XesVNbpvb4ouNrWlf7Bm9+Lj00lOqXLy1rmEKAABM0+SE4sd/omjPC77QPAoVqLIzRvHTD6py2Q2yPYFOuwMAgDM3Oa5o787q2etmUqhAFWWn+Xv6ZWd1+woAAGg05tB+mcPv+lZzKNYlP5d2K9nN2gAAoHFVJqcedmqip++LFajSVGpr9w0AANCoTHnEdzWHwt2UDgAACiBtrndDEqgAAAByIlABAADkRKACAADIiUAFAACQE4EKAAAgJwIVAABATgQqAACAnAhUAAAAORGoAAAAciJQAQAA5ESgAgAAyIlABQAAkBOBCgAAICcCFQAAQE4EKgAAUHvG+I7mUKxAZdzXTVPfAAAAjcq2d/iu5lCsQNXdo/jdN3wDAAA0pLgk9c9rqrNUhQpU6SXXKvr0I5nyiK8AAIBGYxculV28wreaQ6EClZ09X3bLdSq98qyUVHwVAAA0jLgku/Eqt89e4AvNoViX/Jzk1m9L85eq9OZLMsOnfRUAAJx1La2y6y9VsvXmprsp3ZTLZeu7z0j0wTtqve9uVe64S3bRMl8NrDysaPfTit7YpaRvttTVJ9vZ7b5cjfPh5LhKe19Usnaz7KweX6y/lh2/ki642I1PwIXxxDHpyAe+cY7KrukvXin19PlCAG+9Kq3Z6IYd+0KdnR6QHRtV5eIrfKH+zOiQoo/eU7J6g2uEOUYrvbZD6ez5Spet9pX6i/fulPnS7VJnoG1BdsD4zEOqrFgjdXT5Yv217HxMWrE23DL72cduWzshLXHrZkiH33Xry0nfQC3YOQuUXn6j0itcmHLBqiiMyzXx/ffIDJ7U2J33+ur0FTNQZZKKzMAxNyHeVrR3l1spP3K1Sd+zRtyUMS5UqeQSd8BwY8bH3DBbfCuQ7OnJZriMWnKhKtBOvyrbUYTcsGTz0VrZbJiBFlmTuhXFLTs2W2ZDDXPCrZdR7Ibp5mcgZsLNy/bOcAc62bwcL8vGbrqey9ufJHH/45ah7IAnpGx7x1Pj+WX7x2XnK92wVXbVRbK9c8KF8RohUAEAAORUq0BVuHuoAAAAGg2BCgAAICcCFQAAQE7TD1T+3khTHp7qAAAAKKrqwzzu09buCzMzgzNULlEZo2j/674NAABQUBNjMpMTShcs9YWZmcEZqixQRTK7nqg+ng0AAFBILseYoVPVV5SkF17qizMz7UBl++cpXbmu+n4dc/RjXwUAACiYLMvs3enSUKR09UZfnJnpB6ruPqXL17r/Z6z413/XHC+DBAAA5xzzzmuKPjyodNV6pbPn+erMzOAeKpehLr1etne2zPtvK9r9lK8CAAAUgxk4qtLDf139ZYDKluuqJ4rymFGgsrO6Vbn2a9Vrj/H2hxW9/arvAwAA0MCy+79PHlX0k/8tjQ4rWX+Z7Kr1vufMzShQZRKX5irbvlr9MvEDf6nohUelkUHfFwAAoPGY/XtU+vlfKDp8UOnKC1W57uuybR2+78xN+7f8/j+VSZV2P6nSMw9Vu+3CpVO/NL15m4tqM85qAAAAtWPTf7xNKXJ/NTqk5OIrVLn1O9V7w2shX6DyokP71fLTP5cZHZ76df1Si+y886SuHtmc1yQBAABmwmQv7MxyyfFPZYZPZxVZl02SS7apsu1rUmvb1D+sgZoEqowpjyja95KiD96WGTgmc/KozFhZShP/LwAAAAJzocn2zpl67dO885RsvkZ27kIXXGp7Ja1mgaoqu9FrclxmZFBmeHAqFWavdAcAADgbsqtmnV3SrJ6pv9kLyuugtoEKAACgCXHnOAAAQE4EKgAAgJwIVAAAADkRqAAAAHIiUAEAAOREoAIAAMiJQAUAAJATgQoAACAnAhUAAEBOBCoAAICcCFQAAAA5EagAAAByIlABAADkRKACAADIiUAFAACQi/R/AUi89Q69OL4RAAAAAElFTkSuQmCC;fontStyle=0;fontSize=14;container=0;whiteSpace=wrap;" vertex="1" parent="1">
          <mxGeometry x="-811.6799999999998" y="766" width="86.37" height="40" as="geometry" />
        </mxCell>
        <mxCell id="s-O5aCYOvA6fl5G4NqDx-42" style="edgeStyle=elbowEdgeStyle;rounded=0;orthogonalLoop=1;jettySize=auto;html=1;exitX=1;exitY=0.5;exitDx=0;exitDy=0;entryX=0;entryY=0.5;entryDx=0;entryDy=0;fontSize=12;startSize=8;endSize=8;elbow=vertical;" edge="1" parent="1" source="s-O5aCYOvA6fl5G4NqDx-17" target="s-O5aCYOvA6fl5G4NqDx-4">
          <mxGeometry relative="1" as="geometry">
            <Array as="points">
              <mxPoint x="-50" y="958" />
            </Array>
          </mxGeometry>
        </mxCell>
        <mxCell id="s-O5aCYOvA6fl5G4NqDx-17" value="Question&amp;nbsp;&lt;div&gt;+&amp;nbsp;&lt;/div&gt;&lt;div&gt;Context Documents&lt;/div&gt;" style="ellipse;whiteSpace=wrap;html=1;aspect=fixed;" vertex="1" parent="1">
          <mxGeometry x="-260" y="897.51" width="120" height="120" as="geometry" />
        </mxCell>
        <mxCell id="s-O5aCYOvA6fl5G4NqDx-35" style="edgeStyle=elbowEdgeStyle;rounded=0;orthogonalLoop=1;jettySize=auto;html=1;exitX=0;exitY=0.5;exitDx=0;exitDy=0;exitPerimeter=0;entryX=0.5;entryY=0;entryDx=0;entryDy=0;fontSize=12;startSize=8;endSize=8;elbow=vertical;" edge="1" parent="1" source="s-O5aCYOvA6fl5G4NqDx-18" target="s-O5aCYOvA6fl5G4NqDx-10">
          <mxGeometry relative="1" as="geometry">
            <Array as="points">
              <mxPoint x="-400" y="659" />
            </Array>
          </mxGeometry>
        </mxCell>
        <mxCell id="s-O5aCYOvA6fl5G4NqDx-39" style="edgeStyle=orthogonalEdgeStyle;rounded=0;orthogonalLoop=1;jettySize=auto;html=1;exitX=1;exitY=0.5;exitDx=0;exitDy=0;exitPerimeter=0;entryX=0.5;entryY=0;entryDx=0;entryDy=0;fontSize=12;startSize=8;endSize=8;" edge="1" parent="1" source="s-O5aCYOvA6fl5G4NqDx-18" target="s-O5aCYOvA6fl5G4NqDx-17">
          <mxGeometry relative="1" as="geometry" />
        </mxCell>
        <mxCell id="s-O5aCYOvA6fl5G4NqDx-18" value="Question" style="html=1;dashed=1;whiteSpace=wrap;shape=mxgraph.dfd.start;dashPattern=8 8;" vertex="1" parent="1">
          <mxGeometry x="-372" y="638.5" width="120" height="40" as="geometry" />
        </mxCell>
        <mxCell id="s-O5aCYOvA6fl5G4NqDx-30" value="Answer" style="html=1;dashed=1;whiteSpace=wrap;shape=mxgraph.dfd.start;dashPattern=8 8;" vertex="1" parent="1">
          <mxGeometry x="-36" y="640" width="120" height="40" as="geometry" />
        </mxCell>
        <mxCell id="s-O5aCYOvA6fl5G4NqDx-32" style="edgeStyle=none;curved=1;rounded=0;orthogonalLoop=1;jettySize=auto;html=1;exitX=0.5;exitY=0;exitDx=0;exitDy=0;entryX=0.5;entryY=0.5;entryDx=0;entryDy=20;entryPerimeter=0;fontSize=12;startSize=8;endSize=8;" edge="1" parent="1" source="s-O5aCYOvA6fl5G4NqDx-4" target="s-O5aCYOvA6fl5G4NqDx-30">
          <mxGeometry relative="1" as="geometry" />
        </mxCell>
        <mxCell id="s-O5aCYOvA6fl5G4NqDx-41" style="edgeStyle=none;curved=1;rounded=0;orthogonalLoop=1;jettySize=auto;html=1;exitX=0.5;exitY=1;exitDx=0;exitDy=0;exitPerimeter=0;entryX=0.5;entryY=0.5;entryDx=0;entryDy=-20;entryPerimeter=0;fontSize=12;startSize=8;endSize=8;" edge="1" parent="1" source="s-O5aCYOvA6fl5G4NqDx-12" target="s-O5aCYOvA6fl5G4NqDx-18">
          <mxGeometry relative="1" as="geometry" />
        </mxCell>
        <mxCell id="s-O5aCYOvA6fl5G4NqDx-43" style="edgeStyle=elbowEdgeStyle;rounded=0;orthogonalLoop=1;jettySize=auto;html=1;entryX=0.84;entryY=0.28;entryDx=0;entryDy=0;entryPerimeter=0;fontSize=12;startSize=8;endSize=8;elbow=vertical;" edge="1" parent="1" source="s-O5aCYOvA6fl5G4NqDx-3" target="s-O5aCYOvA6fl5G4NqDx-12">
          <mxGeometry relative="1" as="geometry">
            <Array as="points">
              <mxPoint x="-130" y="530" />
            </Array>
          </mxGeometry>
        </mxCell>
        <mxCell id="s-O5aCYOvA6fl5G4NqDx-45" value="" style="rounded=1;whiteSpace=wrap;html=1;fillColor=none;dashed=1;dashPattern=8 8;" vertex="1" parent="1">
          <mxGeometry x="-840" y="710" width="740" height="370" as="geometry" />
        </mxCell>
        <mxCell id="s-O5aCYOvA6fl5G4NqDx-46" value="(Semantic Similarity Search)" style="text;html=1;align=center;verticalAlign=middle;whiteSpace=wrap;rounded=0;fontSize=14;" vertex="1" parent="1">
          <mxGeometry x="-567.63" y="1030" width="220" height="30" as="geometry" />
        </mxCell>
      </root>
    </mxGraphModel>
  </diagram>
</mxfile>
